<?xml version="1.0" encoding="UTF-8"?><svg xmlns="http://www.w3.org/2000/svg" xmlns:xlink="http://www.w3.org/1999/xlink" fill-opacity="1" color-rendering="auto" color-interpolation="auto" text-rendering="auto" stroke="black" stroke-linecap="square" width="151" stroke-miterlimit="10" shape-rendering="auto" stroke-opacity="1" fill="black" stroke-dasharray="none" font-weight="normal" stroke-width="1" height="231" font-family="'Dialog'" font-style="normal" stroke-linejoin="miter" font-size="12px" stroke-dashoffset="0" image-rendering="auto">
  <!--Generated by ySVG 2.5-->
  <defs id="genericDefs"/>
  <g>
    <defs id="defs1">
      <linearGradient x1="431.7713" gradientUnits="userSpaceOnUse" x2="511.7713" y1="-19.1024" y2="20.8976" id="linearGradient1" spreadMethod="reflect">
        <stop stop-opacity="1" stop-color="rgb(232,238,247)" offset="0%"/>
        <stop stop-opacity="1" stop-color="rgb(183,201,227)" offset="100%"/>
      </linearGradient>
      <linearGradient x1="431.7713" gradientUnits="userSpaceOnUse" x2="511.7713" y1="140.8976" y2="180.8976" id="linearGradient2" spreadMethod="reflect">
        <stop stop-opacity="1" stop-color="rgb(232,238,247)" offset="0%"/>
        <stop stop-opacity="1" stop-color="rgb(183,201,227)" offset="100%"/>
      </linearGradient>
      <linearGradient x1="411.7713" gradientUnits="userSpaceOnUse" x2="531.7713" y1="50.8976" y2="110.8976" id="linearGradient3" spreadMethod="reflect">
        <stop stop-opacity="1" stop-color="rgb(232,238,247)" offset="0%"/>
        <stop stop-opacity="1" stop-color="rgb(183,201,227)" offset="100%"/>
      </linearGradient>
      <clipPath clipPathUnits="userSpaceOnUse" id="clipPath1">
        <path d="M0 0 L151 0 L151 231 L0 231 L0 0 Z"/>
      </clipPath>
      <clipPath clipPathUnits="userSpaceOnUse" id="clipPath2">
        <path d="M396 -35 L547 -35 L547 196 L396 196 L396 -35 Z"/>
      </clipPath>
    </defs>
    <g fill="white" text-rendering="geometricPrecision" shape-rendering="geometricPrecision" transform="translate(-396,35)" stroke="white">
      <rect x="396" width="151" height="231" y="-35" clip-path="url(#clipPath2)" stroke="none"/>
    </g>
    <g fill="url(#linearGradient1)" text-rendering="geometricPrecision" shape-rendering="geometricPrecision" transform="matrix(1,0,0,1,-396,35)" stroke="url(#linearGradient1)">
      <circle r="20" clip-path="url(#clipPath2)" cx="471.7713" cy="0.8976" stroke="none"/>
    </g>
    <g text-rendering="geometricPrecision" stroke-miterlimit="1.45" shape-rendering="geometricPrecision" transform="matrix(1,0,0,1,-396,35)" stroke-linecap="butt">
      <circle fill="none" r="20" clip-path="url(#clipPath2)" cx="471.7713" cy="0.8976"/>
    </g>
    <g fill="url(#linearGradient2)" text-rendering="geometricPrecision" shape-rendering="geometricPrecision" transform="matrix(1,0,0,1,-396,35)" stroke="url(#linearGradient2)">
      <rect x="431.7713" y="140.8976" clip-path="url(#clipPath2)" width="80" rx="20" ry="20" height="40" stroke="none"/>
    </g>
    <g text-rendering="geometricPrecision" stroke-miterlimit="1.45" shape-rendering="geometricPrecision" transform="matrix(1,0,0,1,-396,35)" stroke-linecap="butt">
      <rect x="431.7713" y="140.8976" clip-path="url(#clipPath2)" fill="none" width="80" rx="20" ry="20" height="40"/>
    </g>
    <g fill="url(#linearGradient3)" text-rendering="geometricPrecision" shape-rendering="geometricPrecision" transform="matrix(1,0,0,1,-396,35)" stroke="url(#linearGradient3)">
      <path d="M411.7713 50.8976 L531.7713 50.8976 L531.7713 110.8976 L411.7713 110.8976 Z" stroke="none" clip-path="url(#clipPath2)"/>
    </g>
    <g text-rendering="geometricPrecision" stroke-miterlimit="1.45" shape-rendering="geometricPrecision" transform="matrix(1,0,0,1,-396,35)" stroke-linecap="butt">
      <path fill="none" d="M411.7713 50.8976 L531.7713 50.8976 L531.7713 110.8976 L411.7713 110.8976 Z" clip-path="url(#clipPath2)"/>
      <text x="423.9793" xml:space="preserve" y="85.0519" clip-path="url(#clipPath2)" font-family="sans-serif" stroke="none">Delete attribute</text>
    </g>
    <g text-rendering="geometricPrecision" stroke-miterlimit="1.45" shape-rendering="geometricPrecision" transform="matrix(1,0,0,1,-396,35)" stroke-linecap="butt">
      <path fill="none" d="M471.7713 20.8585 L471.7713 42.9074" clip-path="url(#clipPath2)"/>
    </g>
    <g text-rendering="geometricPrecision" stroke-miterlimit="1.45" shape-rendering="geometricPrecision" transform="matrix(1,0,0,1,-396,35)" stroke-linecap="butt">
      <path d="M471.7713 50.9074 L476.7713 38.9074 L471.7713 41.9074 L466.7713 38.9074 Z" stroke="none" clip-path="url(#clipPath2)"/>
      <path fill="none" d="M471.7713 110.8585 L471.7713 132.9113" clip-path="url(#clipPath2)"/>
      <path d="M471.7713 140.9113 L476.7713 128.9113 L471.7713 131.9113 L466.7713 128.9113 Z" clip-path="url(#clipPath2)" stroke="none"/>
    </g>
  </g>
</svg>
