<?xml version="1.0" encoding="UTF-8"?><svg xmlns="http://www.w3.org/2000/svg" xmlns:xlink="http://www.w3.org/1999/xlink" fill-opacity="1" color-rendering="auto" color-interpolation="auto" text-rendering="auto" stroke="black" stroke-linecap="square" width="1245" stroke-miterlimit="10" shape-rendering="auto" stroke-opacity="1" fill="black" stroke-dasharray="none" font-weight="normal" stroke-width="1" height="1095" font-family="'Dialog'" font-style="normal" stroke-linejoin="miter" font-size="12px" stroke-dashoffset="0" image-rendering="auto">
  <!--Generated by ySVG 2.5-->
  <defs id="genericDefs"/>
  <g>
    <defs id="defs1">
      <linearGradient x1="919.6011" gradientUnits="userSpaceOnUse" x2="1039.6011" y1="522.7314" y2="582.7314" id="linearGradient1" spreadMethod="reflect">
        <stop stop-opacity="1" stop-color="rgb(232,238,247)" offset="0%"/>
        <stop stop-opacity="1" stop-color="rgb(183,201,227)" offset="100%"/>
      </linearGradient>
      <linearGradient x1="696.1163" gradientUnits="userSpaceOnUse" x2="936.1163" y1="422.7314" y2="542.7314" id="linearGradient2" spreadMethod="reflect">
        <stop stop-opacity="1" stop-color="rgb(232,238,247)" offset="0%"/>
        <stop stop-opacity="1" stop-color="rgb(183,201,227)" offset="100%"/>
      </linearGradient>
      <linearGradient x1="250.1541" gradientUnits="userSpaceOnUse" x2="330.1541" y1="-356.1968" y2="-316.1968" id="linearGradient3" spreadMethod="reflect">
        <stop stop-opacity="1" stop-color="rgb(232,238,247)" offset="0%"/>
        <stop stop-opacity="1" stop-color="rgb(183,201,227)" offset="100%"/>
      </linearGradient>
      <linearGradient x1="428.1245" gradientUnits="userSpaceOnUse" x2="508.1245" y1="667.9449" y2="707.9449" id="linearGradient4" spreadMethod="reflect">
        <stop stop-opacity="1" stop-color="rgb(232,238,247)" offset="0%"/>
        <stop stop-opacity="1" stop-color="rgb(183,201,227)" offset="100%"/>
      </linearGradient>
      <linearGradient x1="408.1245" gradientUnits="userSpaceOnUse" x2="528.1245" y1="522.7314" y2="582.7314" id="linearGradient5" spreadMethod="reflect">
        <stop stop-opacity="1" stop-color="rgb(232,238,247)" offset="0%"/>
        <stop stop-opacity="1" stop-color="rgb(183,201,227)" offset="100%"/>
      </linearGradient>
      <linearGradient x1="380.2313" gradientUnits="userSpaceOnUse" x2="500.2313" y1="192.5042" y2="252.5042" id="linearGradient6" spreadMethod="reflect">
        <stop stop-opacity="1" stop-color="rgb(232,238,247)" offset="0%"/>
        <stop stop-opacity="1" stop-color="rgb(183,201,227)" offset="100%"/>
      </linearGradient>
      <linearGradient x1="-174.3002" gradientUnits="userSpaceOnUse" x2="-14.3002" y1="422.7314" y2="502.7314" id="linearGradient7" spreadMethod="reflect">
        <stop stop-opacity="1" stop-color="rgb(232,238,247)" offset="0%"/>
        <stop stop-opacity="1" stop-color="rgb(183,201,227)" offset="100%"/>
      </linearGradient>
      <linearGradient x1="460.2313" gradientUnits="userSpaceOnUse" x2="700.2313" y1="-197.723" y2="-77.723" id="linearGradient8" spreadMethod="reflect">
        <stop stop-opacity="1" stop-color="rgb(232,238,247)" offset="0%"/>
        <stop stop-opacity="1" stop-color="rgb(183,201,227)" offset="100%"/>
      </linearGradient>
      <linearGradient x1="176.0761" gradientUnits="userSpaceOnUse" x2="416.0761" y1="-98.5421" y2="21.4579" id="linearGradient9" spreadMethod="reflect">
        <stop stop-opacity="1" stop-color="rgb(232,238,247)" offset="0%"/>
        <stop stop-opacity="1" stop-color="rgb(183,201,227)" offset="100%"/>
      </linearGradient>
      <linearGradient x1="-74.3002" gradientUnits="userSpaceOnUse" x2="45.6998" y1="171.0307" y2="231.0307" id="linearGradient10" spreadMethod="reflect">
        <stop stop-opacity="1" stop-color="rgb(232,238,247)" offset="0%"/>
        <stop stop-opacity="1" stop-color="rgb(183,201,227)" offset="100%"/>
      </linearGradient>
      <linearGradient x1="221.6998" gradientUnits="userSpaceOnUse" x2="341.6998" y1="284.0121" y2="344.0121" id="linearGradient11" spreadMethod="reflect">
        <stop stop-opacity="1" stop-color="rgb(232,238,247)" offset="0%"/>
        <stop stop-opacity="1" stop-color="rgb(183,201,227)" offset="100%"/>
      </linearGradient>
      <linearGradient x1="5.6998" gradientUnits="userSpaceOnUse" x2="245.6998" y1="74.0686" y2="194.0686" id="linearGradient12" spreadMethod="reflect">
        <stop stop-opacity="1" stop-color="rgb(232,238,247)" offset="0%"/>
        <stop stop-opacity="1" stop-color="rgb(183,201,227)" offset="100%"/>
      </linearGradient>
      <linearGradient x1="65.6998" gradientUnits="userSpaceOnUse" x2="185.6998" y1="-9.84" y2="50.16" id="linearGradient13" spreadMethod="reflect">
        <stop stop-opacity="1" stop-color="rgb(232,238,247)" offset="0%"/>
        <stop stop-opacity="1" stop-color="rgb(183,201,227)" offset="100%"/>
      </linearGradient>
      <linearGradient x1="170.1541" gradientUnits="userSpaceOnUse" x2="410.1541" y1="-286.3803" y2="-166.3803" id="linearGradient14" spreadMethod="reflect">
        <stop stop-opacity="1" stop-color="rgb(232,238,247)" offset="0%"/>
        <stop stop-opacity="1" stop-color="rgb(183,201,227)" offset="100%"/>
      </linearGradient>
      <linearGradient x1="520.2313" gradientUnits="userSpaceOnUse" x2="640.2313" y1="-9.84" y2="50.16" id="linearGradient15" spreadMethod="reflect">
        <stop stop-opacity="1" stop-color="rgb(232,238,247)" offset="0%"/>
        <stop stop-opacity="1" stop-color="rgb(183,201,227)" offset="100%"/>
      </linearGradient>
      <linearGradient x1="460.2313" gradientUnits="userSpaceOnUse" x2="700.2313" y1="74.0686" y2="194.0686" id="linearGradient16" spreadMethod="reflect">
        <stop stop-opacity="1" stop-color="rgb(232,238,247)" offset="0%"/>
        <stop stop-opacity="1" stop-color="rgb(183,201,227)" offset="100%"/>
      </linearGradient>
      <linearGradient x1="676.1163" gradientUnits="userSpaceOnUse" x2="796.1163" y1="293.2904" y2="353.2904" id="linearGradient17" spreadMethod="reflect">
        <stop stop-opacity="1" stop-color="rgb(232,238,247)" offset="0%"/>
        <stop stop-opacity="1" stop-color="rgb(183,201,227)" offset="100%"/>
      </linearGradient>
      <clipPath clipPathUnits="userSpaceOnUse" id="clipPath1">
        <path d="M0 0 L1245 0 L1245 1095 L0 1095 L0 0 Z"/>
      </clipPath>
      <clipPath clipPathUnits="userSpaceOnUse" id="clipPath2">
        <path d="M-190 -372 L1055 -372 L1055 723 L-190 723 L-190 -372 Z"/>
      </clipPath>
    </defs>
    <g fill="white" text-rendering="geometricPrecision" shape-rendering="geometricPrecision" transform="translate(190,372)" stroke="white">
      <rect x="-190" width="1245" height="1095" y="-372" clip-path="url(#clipPath2)" stroke="none"/>
    </g>
    <g fill="url(#linearGradient1)" text-rendering="geometricPrecision" shape-rendering="geometricPrecision" transform="matrix(1,0,0,1,190,372)" stroke="url(#linearGradient1)">
      <path d="M919.6011 522.7314 L1039.6011 522.7314 L1039.6011 582.7314 L919.6011 582.7314 Z" stroke="none" clip-path="url(#clipPath2)"/>
    </g>
    <g text-rendering="geometricPrecision" stroke-miterlimit="1.45" shape-rendering="geometricPrecision" transform="matrix(1,0,0,1,190,372)" stroke-linecap="butt">
      <path fill="none" d="M919.6011 522.7314 L1039.6011 522.7314 L1039.6011 582.7314 L919.6011 582.7314 Z" clip-path="url(#clipPath2)"/>
      <text x="929.7935" xml:space="preserve" y="556.8857" clip-path="url(#clipPath2)" font-family="sans-serif" stroke="none">Update attribute</text>
    </g>
    <g fill="url(#linearGradient2)" text-rendering="geometricPrecision" shape-rendering="geometricPrecision" transform="matrix(1,0,0,1,190,372)" stroke="url(#linearGradient2)">
      <path d="M816.1163 422.7314 L936.1163 482.7314 L816.1163 542.7314 L696.1163 482.7314 Z" stroke="none" clip-path="url(#clipPath2)"/>
    </g>
    <g text-rendering="geometricPrecision" stroke-miterlimit="1.45" shape-rendering="geometricPrecision" transform="matrix(1,0,0,1,190,372)" stroke-linecap="butt">
      <path fill="none" d="M816.1163 422.7314 L936.1163 482.7314 L816.1163 542.7314 L696.1163 482.7314 Z" clip-path="url(#clipPath2)"/>
      <text x="758.8145" xml:space="preserve" y="486.8857" clip-path="url(#clipPath2)" font-family="sans-serif" stroke="none">Is attribute ID null?</text>
    </g>
    <g fill="url(#linearGradient3)" text-rendering="geometricPrecision" shape-rendering="geometricPrecision" transform="matrix(1,0,0,1,190,372)" stroke="url(#linearGradient3)">
      <circle r="20" clip-path="url(#clipPath2)" cx="290.154" cy="-336.1968" stroke="none"/>
    </g>
    <g text-rendering="geometricPrecision" stroke-miterlimit="1.45" shape-rendering="geometricPrecision" transform="matrix(1,0,0,1,190,372)" stroke-linecap="butt">
      <circle fill="none" r="20" clip-path="url(#clipPath2)" cx="290.154" cy="-336.1968"/>
    </g>
    <g fill="url(#linearGradient4)" text-rendering="geometricPrecision" shape-rendering="geometricPrecision" transform="matrix(1,0,0,1,190,372)" stroke="url(#linearGradient4)">
      <rect x="428.1245" y="667.945" clip-path="url(#clipPath2)" width="80" rx="20" ry="20" height="40" stroke="none"/>
    </g>
    <g text-rendering="geometricPrecision" stroke-miterlimit="1.45" shape-rendering="geometricPrecision" transform="matrix(1,0,0,1,190,372)" stroke-linecap="butt">
      <rect x="428.1245" y="667.945" clip-path="url(#clipPath2)" fill="none" width="80" rx="20" ry="20" height="40"/>
    </g>
    <g fill="url(#linearGradient5)" text-rendering="geometricPrecision" shape-rendering="geometricPrecision" transform="matrix(1,0,0,1,190,372)" stroke="url(#linearGradient5)">
      <path d="M408.1245 522.7314 L528.1245 522.7314 L528.1245 582.7314 L408.1245 582.7314 Z" stroke="none" clip-path="url(#clipPath2)"/>
    </g>
    <g text-rendering="geometricPrecision" stroke-miterlimit="1.45" shape-rendering="geometricPrecision" transform="matrix(1,0,0,1,190,372)" stroke-linecap="butt">
      <path fill="none" d="M408.1245 522.7314 L528.1245 522.7314 L528.1245 582.7314 L408.1245 582.7314 Z" clip-path="url(#clipPath2)"/>
      <text x="419.978" xml:space="preserve" y="556.8857" clip-path="url(#clipPath2)" font-family="sans-serif" stroke="none">Create attribute</text>
    </g>
    <g fill="url(#linearGradient6)" text-rendering="geometricPrecision" shape-rendering="geometricPrecision" transform="matrix(1,0,0,1,190,372)" stroke="url(#linearGradient6)">
      <path d="M380.2313 192.5042 L500.2313 192.5042 L500.2313 252.5042 L380.2313 252.5042 Z" stroke="none" clip-path="url(#clipPath2)"/>
    </g>
    <g text-rendering="geometricPrecision" stroke-miterlimit="1.45" shape-rendering="geometricPrecision" transform="matrix(1,0,0,1,190,372)" stroke-linecap="butt">
      <path fill="none" d="M380.2313 192.5042 L500.2313 192.5042 L500.2313 252.5042 L380.2313 252.5042 Z" clip-path="url(#clipPath2)"/>
      <text x="395.785" xml:space="preserve" y="226.6585" clip-path="url(#clipPath2)" font-family="sans-serif" stroke="none">Create domain</text>
    </g>
    <g fill="url(#linearGradient7)" text-rendering="geometricPrecision" shape-rendering="geometricPrecision" transform="matrix(1,0,0,1,190,372)" stroke="url(#linearGradient7)">
      <path d="M-174.3002 422.7314 L-34.3002 422.7314 L-14.3002 462.7314 L-34.3002 502.7314 L-174.3002 502.7314 Z" stroke="none" clip-path="url(#clipPath2)"/>
    </g>
    <g text-rendering="geometricPrecision" stroke-miterlimit="1.45" shape-rendering="geometricPrecision" transform="matrix(1,0,0,1,190,372)" stroke-linecap="butt">
      <path fill="none" d="M-174.3002 422.7314 L-34.3002 422.7314 L-14.3002 462.7314 L-34.3002 502.7314 L-174.3002 502.7314 Z" clip-path="url(#clipPath2)"/>
      <text x="-144.8549" xml:space="preserve" y="452.9169" clip-path="url(#clipPath2)" font-family="sans-serif" stroke="none">Attribute names </text>
      <text x="-141.3159" xml:space="preserve" y="466.8857" clip-path="url(#clipPath2)" font-family="sans-serif" stroke="none">must be unique</text>
      <text x="-138.31" xml:space="preserve" y="480.8544" clip-path="url(#clipPath2)" font-family="sans-serif" stroke="none">(for the entity)</text>
    </g>
    <g fill="url(#linearGradient8)" text-rendering="geometricPrecision" shape-rendering="geometricPrecision" transform="matrix(1,0,0,1,190,372)" stroke="url(#linearGradient8)">
      <path d="M580.2313 -197.723 L700.2313 -137.723 L580.2313 -77.723 L460.2313 -137.723 Z" stroke="none" clip-path="url(#clipPath2)"/>
    </g>
    <g text-rendering="geometricPrecision" stroke-miterlimit="1.45" shape-rendering="geometricPrecision" transform="matrix(1,0,0,1,190,372)" stroke-linecap="butt">
      <path fill="none" d="M580.2313 -197.723 L700.2313 -137.723 L580.2313 -77.723 L460.2313 -137.723 Z" clip-path="url(#clipPath2)"/>
      <text x="526.6297" xml:space="preserve" y="-133.5687" clip-path="url(#clipPath2)" font-family="sans-serif" stroke="none">Is domain ID null?</text>
    </g>
    <g fill="url(#linearGradient9)" text-rendering="geometricPrecision" shape-rendering="geometricPrecision" transform="matrix(1,0,0,1,190,372)" stroke="url(#linearGradient9)">
      <path d="M296.0761 -98.5421 L416.0761 -38.5421 L296.0761 21.4579 L176.0761 -38.5421 Z" stroke="none" clip-path="url(#clipPath2)"/>
    </g>
    <g text-rendering="geometricPrecision" stroke-miterlimit="1.45" shape-rendering="geometricPrecision" transform="matrix(1,0,0,1,190,372)" stroke-linecap="butt">
      <path fill="none" d="M296.0761 -98.5421 L416.0761 -38.5421 L296.0761 21.4579 L176.0761 -38.5421 Z" clip-path="url(#clipPath2)"/>
      <text x="218.8612" xml:space="preserve" y="-34.3878" clip-path="url(#clipPath2)" font-family="sans-serif" stroke="none">Is range "adjustable set"?</text>
    </g>
    <g fill="url(#linearGradient10)" text-rendering="geometricPrecision" shape-rendering="geometricPrecision" transform="matrix(1,0,0,1,190,372)" stroke="url(#linearGradient10)">
      <path d="M-74.3002 171.0307 L45.6998 171.0307 L45.6998 231.0307 L-74.3002 231.0307 Z" stroke="none" clip-path="url(#clipPath2)"/>
    </g>
    <g text-rendering="geometricPrecision" stroke-miterlimit="1.45" shape-rendering="geometricPrecision" transform="matrix(1,0,0,1,190,372)" stroke-linecap="butt">
      <path fill="none" d="M-74.3002 171.0307 L45.6998 171.0307 L45.6998 231.0307 L-74.3002 231.0307 Z" clip-path="url(#clipPath2)"/>
      <text x="-53.6928" xml:space="preserve" y="205.185" clip-path="url(#clipPath2)" font-family="sans-serif" stroke="none">Create entity</text>
    </g>
    <g fill="url(#linearGradient11)" text-rendering="geometricPrecision" shape-rendering="geometricPrecision" transform="matrix(1,0,0,1,190,372)" stroke="url(#linearGradient11)">
      <path d="M221.6998 284.0121 L341.6998 284.0121 L341.6998 344.0121 L221.6998 344.0121 Z" stroke="none" clip-path="url(#clipPath2)"/>
    </g>
    <g text-rendering="geometricPrecision" stroke-miterlimit="1.45" shape-rendering="geometricPrecision" transform="matrix(1,0,0,1,190,372)" stroke-linecap="butt">
      <path fill="none" d="M221.6998 284.0121 L341.6998 284.0121 L341.6998 344.0121 L221.6998 344.0121 Z" clip-path="url(#clipPath2)"/>
      <text x="238.3316" xml:space="preserve" y="311.182" clip-path="url(#clipPath2)" font-family="sans-serif" stroke="none">Get domain ID</text>
      <text x="254.1255" xml:space="preserve" y="325.1507" clip-path="url(#clipPath2)" font-family="sans-serif" stroke="none">for entity</text>
    </g>
    <g fill="url(#linearGradient12)" text-rendering="geometricPrecision" shape-rendering="geometricPrecision" transform="matrix(1,0,0,1,190,372)" stroke="url(#linearGradient12)">
      <path d="M125.6998 74.0686 L245.6998 134.0686 L125.6998 194.0686 L5.6998 134.0686 Z" stroke="none" clip-path="url(#clipPath2)"/>
    </g>
    <g text-rendering="geometricPrecision" stroke-miterlimit="1.45" shape-rendering="geometricPrecision" transform="matrix(1,0,0,1,190,372)" stroke-linecap="butt">
      <path fill="none" d="M125.6998 74.0686 L245.6998 134.0686 L125.6998 194.0686 L5.6998 134.0686 Z" clip-path="url(#clipPath2)"/>
      <text x="71.3511" xml:space="preserve" y="138.2229" clip-path="url(#clipPath2)" font-family="sans-serif" stroke="none">Was entity found?</text>
    </g>
    <g fill="url(#linearGradient13)" text-rendering="geometricPrecision" shape-rendering="geometricPrecision" transform="matrix(1,0,0,1,190,372)" stroke="url(#linearGradient13)">
      <path d="M65.6998 -9.84 L185.6998 -9.84 L185.6998 50.16 L65.6998 50.16 Z" stroke="none" clip-path="url(#clipPath2)"/>
    </g>
    <g text-rendering="geometricPrecision" stroke-miterlimit="1.45" shape-rendering="geometricPrecision" transform="matrix(1,0,0,1,190,372)" stroke-linecap="butt">
      <path fill="none" d="M65.6998 -9.84 L185.6998 -9.84 L185.6998 50.16 L65.6998 50.16 Z" clip-path="url(#clipPath2)"/>
      <text x="75.4732" xml:space="preserve" y="24.3143" clip-path="url(#clipPath2)" font-family="sans-serif" stroke="none">Search for entity</text>
    </g>
    <g fill="url(#linearGradient14)" text-rendering="geometricPrecision" shape-rendering="geometricPrecision" transform="matrix(1,0,0,1,190,372)" stroke="url(#linearGradient14)">
      <path d="M290.1541 -286.3803 L410.1541 -226.3803 L290.1541 -166.3803 L170.1541 -226.3803 Z" stroke="none" clip-path="url(#clipPath2)"/>
    </g>
    <g text-rendering="geometricPrecision" stroke-miterlimit="1.45" shape-rendering="geometricPrecision" transform="matrix(1,0,0,1,190,372)" stroke-linecap="butt">
      <path fill="none" d="M290.1541 -286.3803 L410.1541 -226.3803 L290.1541 -166.3803 L170.1541 -226.3803 Z" clip-path="url(#clipPath2)"/>
      <text x="216.1296" xml:space="preserve" y="-236.1948" clip-path="url(#clipPath2)" font-family="sans-serif" stroke="none">Does new name conflict </text>
      <text x="218.5173" xml:space="preserve" y="-222.226" clip-path="url(#clipPath2)" font-family="sans-serif" stroke="none">with any other attribute</text>
      <text x="242.9597" xml:space="preserve" y="-208.2573" clip-path="url(#clipPath2)" font-family="sans-serif" stroke="none">(for the entity)?</text>
    </g>
    <g fill="url(#linearGradient15)" text-rendering="geometricPrecision" shape-rendering="geometricPrecision" transform="matrix(1,0,0,1,190,372)" stroke="url(#linearGradient15)">
      <path d="M520.2313 -9.84 L640.2313 -9.84 L640.2313 50.16 L520.2313 50.16 Z" stroke="none" clip-path="url(#clipPath2)"/>
    </g>
    <g text-rendering="geometricPrecision" stroke-miterlimit="1.45" shape-rendering="geometricPrecision" transform="matrix(1,0,0,1,190,372)" stroke-linecap="butt">
      <path fill="none" d="M520.2313 -9.84 L640.2313 -9.84 L640.2313 50.16 L520.2313 50.16 Z" clip-path="url(#clipPath2)"/>
      <text x="524.951" xml:space="preserve" y="24.3143" clip-path="url(#clipPath2)" font-family="sans-serif" stroke="none">Search for domain</text>
    </g>
    <g fill="url(#linearGradient16)" text-rendering="geometricPrecision" shape-rendering="geometricPrecision" transform="matrix(1,0,0,1,190,372)" stroke="url(#linearGradient16)">
      <path d="M580.2313 74.0686 L700.2313 134.0686 L580.2313 194.0686 L460.2313 134.0686 Z" stroke="none" clip-path="url(#clipPath2)"/>
    </g>
    <g text-rendering="geometricPrecision" stroke-miterlimit="1.45" shape-rendering="geometricPrecision" transform="matrix(1,0,0,1,190,372)" stroke-linecap="butt">
      <path fill="none" d="M580.2313 74.0686 L700.2313 134.0686 L580.2313 194.0686 L460.2313 134.0686 Z" clip-path="url(#clipPath2)"/>
      <text x="520.8289" xml:space="preserve" y="138.2229" clip-path="url(#clipPath2)" font-family="sans-serif" stroke="none">Was domain found?</text>
    </g>
    <g fill="url(#linearGradient17)" text-rendering="geometricPrecision" shape-rendering="geometricPrecision" transform="matrix(1,0,0,1,190,372)" stroke="url(#linearGradient17)">
      <path d="M676.1163 293.2904 L796.1163 293.2904 L796.1163 353.2904 L676.1163 353.2904 Z" stroke="none" clip-path="url(#clipPath2)"/>
    </g>
    <g text-rendering="geometricPrecision" stroke-miterlimit="1.45" shape-rendering="geometricPrecision" transform="matrix(1,0,0,1,190,372)" stroke-linecap="butt">
      <path fill="none" d="M676.1163 293.2904 L796.1163 293.2904 L796.1163 353.2904 L676.1163 353.2904 Z" clip-path="url(#clipPath2)"/>
      <text x="692.7481" xml:space="preserve" y="327.4447" clip-path="url(#clipPath2)" font-family="sans-serif" stroke="none">Get domain ID</text>
    </g>
    <g text-rendering="geometricPrecision" stroke-miterlimit="1.45" shape-rendering="geometricPrecision" transform="matrix(1,0,0,1,190,372)" stroke-linecap="butt">
      <path fill="none" d="M936.1355 482.7314 L979.6011 482.7314 L979.6011 514.7558" clip-path="url(#clipPath2)"/>
    </g>
    <g text-rendering="geometricPrecision" stroke-miterlimit="1.45" shape-rendering="geometricPrecision" transform="matrix(1,0,0,1,190,372)" stroke-linecap="butt">
      <path d="M979.6011 522.7558 L984.6011 510.7558 L979.6011 513.7558 L974.6011 510.7558 Z" stroke="none" clip-path="url(#clipPath2)"/>
      <text x="948.2413" xml:space="preserve" y="475.9013" clip-path="url(#clipPath2)" font-family="sans-serif" stroke="none">No</text>
      <path fill="none" d="M979.6011 582.7271 L979.6011 612.5477 L488.1245 612.5477 L488.1245 659.9698" clip-path="url(#clipPath2)"/>
      <path d="M488.1245 667.9698 L493.1245 655.9698 L488.1245 658.9698 L483.1245 655.9698 Z" clip-path="url(#clipPath2)" stroke="none"/>
      <path fill="none" d="M696.1118 482.7314 L468.1245 482.7314 L468.1245 514.7558" clip-path="url(#clipPath2)"/>
      <path d="M468.1245 522.7558 L473.1245 510.7558 L468.1245 513.7558 L463.1245 510.7558 Z" clip-path="url(#clipPath2)" stroke="none"/>
      <text x="663.0264" xml:space="preserve" y="475.9013" clip-path="url(#clipPath2)" font-family="sans-serif" stroke="none">Yes</text>
      <path fill="none" d="M468.1245 582.7479 L468.1245 659.9719" clip-path="url(#clipPath2)"/>
      <path d="M468.1245 667.9719 L473.1245 655.9719 L468.1245 658.9719 L463.1245 655.9719 Z" clip-path="url(#clipPath2)" stroke="none"/>
      <path fill="none" d="M-94.3002 502.7049 L-94.3002 612.5477 L448.1245 612.5477 L448.1245 659.9543" clip-path="url(#clipPath2)"/>
      <path d="M448.1245 667.9543 L453.1245 655.9543 L448.1245 658.9543 L443.1245 655.9543 Z" clip-path="url(#clipPath2)" stroke="none"/>
      <path fill="none" d="M700.2182 -137.723 L816.1163 -137.723 L816.1163 414.7171" clip-path="url(#clipPath2)"/>
      <path d="M816.1163 422.7171 L821.1163 410.7171 L816.1163 413.7171 L811.1163 410.7171 Z" clip-path="url(#clipPath2)" stroke="none"/>
      <text x="712.3563" xml:space="preserve" y="-144.5531" clip-path="url(#clipPath2)" font-family="sans-serif" stroke="none">No</text>
      <path fill="none" d="M460.2492 -137.723 L296.0761 -137.723 L296.0761 -106.5446" clip-path="url(#clipPath2)"/>
      <path d="M296.0761 -98.5446 L301.0761 -110.5446 L296.0761 -107.5446 L291.0761 -110.5446 Z" clip-path="url(#clipPath2)" stroke="none"/>
      <text x="427.1414" xml:space="preserve" y="-144.5531" clip-path="url(#clipPath2)" font-family="sans-serif" stroke="none">Yes</text>
      <path fill="none" d="M-14.3002 231.0463 L-14.3002 253.2584 L255.6998 253.2584 L255.6998 276.0209" clip-path="url(#clipPath2)"/>
      <path d="M255.6998 284.0209 L260.6998 272.0209 L255.6998 275.0209 L250.6998 272.0209 Z" clip-path="url(#clipPath2)" stroke="none"/>
      <path fill="none" d="M281.6998 344.0412 L281.6998 385.11 L816.1163 385.11 L816.1163 414.73" clip-path="url(#clipPath2)"/>
      <path d="M816.1163 422.73 L821.1163 410.73 L816.1163 413.73 L811.1163 410.73 Z" clip-path="url(#clipPath2)" stroke="none"/>
      <path fill="none" d="M5.6949 134.0686 L-14.3002 134.0686 L-14.3002 163.0481" clip-path="url(#clipPath2)"/>
      <path d="M-14.3002 171.0481 L-9.3002 159.0481 L-14.3002 162.0481 L-19.3002 159.0481 Z" clip-path="url(#clipPath2)" stroke="none"/>
      <text x="-17.0219" xml:space="preserve" y="127.2385" clip-path="url(#clipPath2)" font-family="sans-serif" stroke="none">No</text>
      <path fill="none" d="M245.6819 134.0686 L301.7825 134.0686 L301.7825 275.9751" clip-path="url(#clipPath2)"/>
      <path d="M301.7825 283.9751 L306.7825 271.9751 L301.7825 274.9751 L296.7825 271.9751 Z" clip-path="url(#clipPath2)" stroke="none"/>
      <text x="257.8248" xml:space="preserve" y="127.2385" clip-path="url(#clipPath2)" font-family="sans-serif" stroke="none">Yes</text>
      <path fill="none" d="M176.0723 -38.5421 L125.6998 -38.5421 L125.6998 -17.8503" clip-path="url(#clipPath2)"/>
      <path d="M125.6998 -9.8503 L130.6998 -21.8503 L125.6998 -18.8503 L120.6998 -21.8503 Z" clip-path="url(#clipPath2)" stroke="none"/>
      <text x="142.9862" xml:space="preserve" y="-45.3722" clip-path="url(#clipPath2)" font-family="sans-serif" stroke="none">Yes</text>
      <path fill="none" d="M125.6998 50.1667 L125.6998 66.0509" clip-path="url(#clipPath2)"/>
      <path d="M125.6998 74.0509 L130.6998 62.0509 L125.6998 65.0509 L120.6998 62.0509 Z" clip-path="url(#clipPath2)" stroke="none"/>
      <path fill="none" d="M290.1541 -316.2229 L290.1541 -294.3484" clip-path="url(#clipPath2)"/>
      <path d="M290.1541 -286.3484 L295.1541 -298.3484 L290.1541 -295.3484 L285.1541 -298.3484 Z" clip-path="url(#clipPath2)" stroke="none"/>
      <path fill="none" d="M407.2325 -227.8382 L580.2313 -227.8382 L580.2313 -205.6971" clip-path="url(#clipPath2)"/>
      <path d="M580.2313 -197.6971 L585.2313 -209.6971 L580.2313 -206.6971 L575.2313 -209.6971 Z" clip-path="url(#clipPath2)" stroke="none"/>
      <text x="422.2791" xml:space="preserve" y="-234.6683" clip-path="url(#clipPath2)" font-family="sans-serif" stroke="none">No</text>
      <path fill="none" d="M170.1529 -226.3803 L-94.3002 -226.3803 L-94.3002 414.7586" clip-path="url(#clipPath2)"/>
      <path d="M-94.3002 422.7586 L-89.3002 410.7586 L-94.3002 413.7586 L-99.3002 410.7586 Z" clip-path="url(#clipPath2)" stroke="none"/>
      <text x="137.0642" xml:space="preserve" y="-233.2104" clip-path="url(#clipPath2)" font-family="sans-serif" stroke="none">Yes</text>
      <path fill="none" d="M416.0654 -38.5421 L581.569 -38.5421 L581.569 -17.8511" clip-path="url(#clipPath2)"/>
      <path d="M581.569 -9.8511 L586.569 -21.8511 L581.569 -18.8511 L576.569 -21.8511 Z" clip-path="url(#clipPath2)" stroke="none"/>
      <text x="428.2011" xml:space="preserve" y="-45.3722" clip-path="url(#clipPath2)" font-family="sans-serif" stroke="none">No</text>
      <path fill="none" d="M580.2313 50.1667 L580.2313 66.0509" clip-path="url(#clipPath2)"/>
      <path d="M580.2313 74.0509 L585.2313 62.0509 L580.2313 65.0509 L575.2313 62.0509 Z" clip-path="url(#clipPath2)" stroke="none"/>
      <path fill="none" d="M460.2264 134.0686 L440.2313 134.0686 L440.2313 184.4931" clip-path="url(#clipPath2)"/>
      <path d="M440.2313 192.4931 L445.2313 180.4931 L440.2313 183.4931 L435.2313 180.4931 Z" clip-path="url(#clipPath2)" stroke="none"/>
      <text x="437.5096" xml:space="preserve" y="127.2385" clip-path="url(#clipPath2)" font-family="sans-serif" stroke="none">No</text>
      <path fill="none" d="M700.2277 134.0686 L736.1163 134.0686 L736.1163 285.3087" clip-path="url(#clipPath2)"/>
      <path d="M736.1163 293.3087 L741.1163 281.3087 L736.1163 284.3087 L731.1163 281.3087 Z" clip-path="url(#clipPath2)" stroke="none"/>
      <text x="712.2538" xml:space="preserve" y="127.2385" clip-path="url(#clipPath2)" font-family="sans-serif" stroke="none">Yes</text>
      <path fill="none" d="M440.2313 252.5197 L440.2313 269.2863 L735.0596 269.2863 L735.0596 285.3283" clip-path="url(#clipPath2)"/>
      <path d="M735.0596 293.3283 L740.0596 281.3283 L735.0596 284.3283 L730.0596 281.3283 Z" clip-path="url(#clipPath2)" stroke="none"/>
      <path fill="none" d="M736.1163 353.2645 L736.1163 385.11 L816.1163 385.11 L816.1163 414.7225" clip-path="url(#clipPath2)"/>
      <path d="M816.1163 422.7225 L821.1163 410.7225 L816.1163 413.7225 L811.1163 410.7225 Z" clip-path="url(#clipPath2)" stroke="none"/>
    </g>
  </g>
</svg>
