<?xml version="1.0" encoding="UTF-8"?><svg xmlns="http://www.w3.org/2000/svg" xmlns:xlink="http://www.w3.org/1999/xlink" fill-opacity="1" color-rendering="auto" color-interpolation="auto" text-rendering="auto" stroke="black" stroke-linecap="square" width="810" stroke-miterlimit="10" shape-rendering="auto" stroke-opacity="1" fill="black" stroke-dasharray="none" font-weight="normal" stroke-width="1" height="548" font-family="'Dialog'" font-style="normal" stroke-linejoin="miter" font-size="12px" stroke-dashoffset="0" image-rendering="auto">
  <!--Generated by ySVG 2.5-->
  <defs id="genericDefs"/>
  <g>
    <defs id="defs1">
      <linearGradient x1="861" gradientUnits="userSpaceOnUse" x2="981" y1="243.8168" y2="303.8168" id="linearGradient1" spreadMethod="reflect">
        <stop stop-opacity="1" stop-color="rgb(232,238,247)" offset="0%"/>
        <stop stop-opacity="1" stop-color="rgb(183,201,227)" offset="100%"/>
      </linearGradient>
      <linearGradient x1="342.7713" gradientUnits="userSpaceOnUse" x2="582.7713" y1="-28.3968" y2="91.6032" id="linearGradient2" spreadMethod="reflect">
        <stop stop-opacity="1" stop-color="rgb(232,238,247)" offset="0%"/>
        <stop stop-opacity="1" stop-color="rgb(183,201,227)" offset="100%"/>
      </linearGradient>
      <linearGradient x1="422.7713" gradientUnits="userSpaceOnUse" x2="502.7713" y1="-107.4992" y2="-67.4992" id="linearGradient3" spreadMethod="reflect">
        <stop stop-opacity="1" stop-color="rgb(232,238,247)" offset="0%"/>
        <stop stop-opacity="1" stop-color="rgb(183,201,227)" offset="100%"/>
      </linearGradient>
      <linearGradient x1="411" gradientUnits="userSpaceOnUse" x2="491" y1="370" y2="410" id="linearGradient4" spreadMethod="reflect">
        <stop stop-opacity="1" stop-color="rgb(232,238,247)" offset="0%"/>
        <stop stop-opacity="1" stop-color="rgb(183,201,227)" offset="100%"/>
      </linearGradient>
      <linearGradient x1="653.5213" gradientUnits="userSpaceOnUse" x2="893.5213" y1="144.5368" y2="264.5368" id="linearGradient5" spreadMethod="reflect">
        <stop stop-opacity="1" stop-color="rgb(232,238,247)" offset="0%"/>
        <stop stop-opacity="1" stop-color="rgb(183,201,227)" offset="100%"/>
      </linearGradient>
      <linearGradient x1="541" gradientUnits="userSpaceOnUse" x2="701" y1="233.8168" y2="313.8168" id="linearGradient6" spreadMethod="reflect">
        <stop stop-opacity="1" stop-color="rgb(232,238,247)" offset="0%"/>
        <stop stop-opacity="1" stop-color="rgb(183,201,227)" offset="100%"/>
      </linearGradient>
      <linearGradient x1="201" gradientUnits="userSpaceOnUse" x2="361" y1="233.8168" y2="313.8168" id="linearGradient7" spreadMethod="reflect">
        <stop stop-opacity="1" stop-color="rgb(232,238,247)" offset="0%"/>
        <stop stop-opacity="1" stop-color="rgb(183,201,227)" offset="100%"/>
      </linearGradient>
      <linearGradient x1="491.7713" gradientUnits="userSpaceOnUse" x2="731.7713" y1="58.14" y2="178.14" id="linearGradient8" spreadMethod="reflect">
        <stop stop-opacity="1" stop-color="rgb(232,238,247)" offset="0%"/>
        <stop stop-opacity="1" stop-color="rgb(183,201,227)" offset="100%"/>
      </linearGradient>
      <linearGradient x1="371" gradientUnits="userSpaceOnUse" x2="531" y1="233.8168" y2="313.8168" id="linearGradient9" spreadMethod="reflect">
        <stop stop-opacity="1" stop-color="rgb(232,238,247)" offset="0%"/>
        <stop stop-opacity="1" stop-color="rgb(183,201,227)" offset="100%"/>
      </linearGradient>
      <clipPath clipPathUnits="userSpaceOnUse" id="clipPath1">
        <path d="M0 0 L810 0 L810 548 L0 548 L0 0 Z"/>
      </clipPath>
      <clipPath clipPathUnits="userSpaceOnUse" id="clipPath2">
        <path d="M186 -123 L996 -123 L996 425 L186 425 L186 -123 Z"/>
      </clipPath>
    </defs>
    <g fill="white" text-rendering="geometricPrecision" shape-rendering="geometricPrecision" transform="translate(-186,123)" stroke="white">
      <rect x="186" width="810" height="548" y="-123" clip-path="url(#clipPath2)" stroke="none"/>
    </g>
    <g fill="url(#linearGradient1)" text-rendering="geometricPrecision" shape-rendering="geometricPrecision" transform="matrix(1,0,0,1,-186,123)" stroke="url(#linearGradient1)">
      <path d="M861 243.8168 L981 243.8168 L981 303.8168 L861 303.8168 Z" stroke="none" clip-path="url(#clipPath2)"/>
    </g>
    <g text-rendering="geometricPrecision" stroke-miterlimit="1.45" shape-rendering="geometricPrecision" transform="matrix(1,0,0,1,-186,123)" stroke-linecap="butt">
      <path fill="none" d="M861 243.8168 L981 243.8168 L981 303.8168 L861 303.8168 Z" clip-path="url(#clipPath2)"/>
      <text x="876.9082" xml:space="preserve" y="277.9711" clip-path="url(#clipPath2)" font-family="sans-serif" stroke="none">Delete domain</text>
    </g>
    <g fill="url(#linearGradient2)" text-rendering="geometricPrecision" shape-rendering="geometricPrecision" transform="matrix(1,0,0,1,-186,123)" stroke="url(#linearGradient2)">
      <path d="M462.7713 -28.3968 L582.7713 31.6032 L462.7713 91.6032 L342.7713 31.6032 Z" stroke="none" clip-path="url(#clipPath2)"/>
    </g>
    <g text-rendering="geometricPrecision" stroke-miterlimit="1.45" shape-rendering="geometricPrecision" transform="matrix(1,0,0,1,-186,123)" stroke-linecap="butt">
      <path fill="none" d="M462.7713 -28.3968 L582.7713 31.6032 L462.7713 91.6032 L342.7713 31.6032 Z" clip-path="url(#clipPath2)"/>
      <text x="381.326" xml:space="preserve" y="35.7575" clip-path="url(#clipPath2)" font-family="sans-serif" stroke="none">Is an entity-based domain?</text>
    </g>
    <g fill="url(#linearGradient3)" text-rendering="geometricPrecision" shape-rendering="geometricPrecision" transform="matrix(1,0,0,1,-186,123)" stroke="url(#linearGradient3)">
      <circle r="20" clip-path="url(#clipPath2)" cx="462.7713" cy="-87.4992" stroke="none"/>
    </g>
    <g text-rendering="geometricPrecision" stroke-miterlimit="1.45" shape-rendering="geometricPrecision" transform="matrix(1,0,0,1,-186,123)" stroke-linecap="butt">
      <circle fill="none" r="20" clip-path="url(#clipPath2)" cx="462.7713" cy="-87.4992"/>
    </g>
    <g fill="url(#linearGradient4)" text-rendering="geometricPrecision" shape-rendering="geometricPrecision" transform="matrix(1,0,0,1,-186,123)" stroke="url(#linearGradient4)">
      <rect x="411" y="370" clip-path="url(#clipPath2)" width="80" rx="20" ry="20" height="40" stroke="none"/>
    </g>
    <g text-rendering="geometricPrecision" stroke-miterlimit="1.45" shape-rendering="geometricPrecision" transform="matrix(1,0,0,1,-186,123)" stroke-linecap="butt">
      <rect x="411" y="370" clip-path="url(#clipPath2)" fill="none" width="80" rx="20" ry="20" height="40"/>
    </g>
    <g fill="url(#linearGradient5)" text-rendering="geometricPrecision" shape-rendering="geometricPrecision" transform="matrix(1,0,0,1,-186,123)" stroke="url(#linearGradient5)">
      <path d="M773.5213 144.5368 L893.5213 204.5368 L773.5213 264.5368 L653.5213 204.5368 Z" stroke="none" clip-path="url(#clipPath2)"/>
    </g>
    <g text-rendering="geometricPrecision" stroke-miterlimit="1.45" shape-rendering="geometricPrecision" transform="matrix(1,0,0,1,-186,123)" stroke-linecap="butt">
      <path fill="none" d="M773.5213 144.5368 L893.5213 204.5368 L773.5213 264.5368 L653.5213 204.5368 Z" clip-path="url(#clipPath2)"/>
      <text x="722.8231" xml:space="preserve" y="201.7067" clip-path="url(#clipPath2)" font-family="sans-serif" stroke="none">Is referenced by </text>
      <text x="728.1024" xml:space="preserve" y="215.6755" clip-path="url(#clipPath2)" font-family="sans-serif" stroke="none">any attributes?</text>
    </g>
    <g fill="url(#linearGradient6)" text-rendering="geometricPrecision" shape-rendering="geometricPrecision" transform="matrix(1,0,0,1,-186,123)" stroke="url(#linearGradient6)">
      <path d="M541 233.8168 L681 233.8168 L701 273.8168 L681 313.8168 L541 313.8168 Z" stroke="none" clip-path="url(#clipPath2)"/>
    </g>
    <g text-rendering="geometricPrecision" stroke-miterlimit="1.45" shape-rendering="geometricPrecision" transform="matrix(1,0,0,1,-186,123)" stroke-linecap="butt">
      <path fill="none" d="M541 233.8168 L681 233.8168 L701 273.8168 L681 313.8168 L541 313.8168 Z" clip-path="url(#clipPath2)"/>
      <text x="549.2842" xml:space="preserve" y="264.0023" clip-path="url(#clipPath2)" font-family="sans-serif" stroke="none">Cannot delete domains </text>
      <text x="560.5371" xml:space="preserve" y="277.9711" clip-path="url(#clipPath2)" font-family="sans-serif" stroke="none">that are referenced </text>
      <text x="582.4365" xml:space="preserve" y="291.9398" clip-path="url(#clipPath2)" font-family="sans-serif" stroke="none">by attributes</text>
    </g>
    <g fill="url(#linearGradient7)" text-rendering="geometricPrecision" shape-rendering="geometricPrecision" transform="matrix(1,0,0,1,-186,123)" stroke="url(#linearGradient7)">
      <path d="M201 233.8168 L341 233.8168 L361 273.8168 L341 313.8168 L201 313.8168 Z" stroke="none" clip-path="url(#clipPath2)"/>
    </g>
    <g text-rendering="geometricPrecision" stroke-miterlimit="1.45" shape-rendering="geometricPrecision" transform="matrix(1,0,0,1,-186,123)" stroke-linecap="butt">
      <path fill="none" d="M201 233.8168 L341 233.8168 L361 273.8168 L341 313.8168 L201 313.8168 Z" clip-path="url(#clipPath2)"/>
      <text x="236.7881" xml:space="preserve" y="264.0023" clip-path="url(#clipPath2)" font-family="sans-serif" stroke="none">Cannot delete </text>
      <text x="241.3994" xml:space="preserve" y="277.9711" clip-path="url(#clipPath2)" font-family="sans-serif" stroke="none">entity-based </text>
      <text x="255.4033" xml:space="preserve" y="291.9398" clip-path="url(#clipPath2)" font-family="sans-serif" stroke="none">domains</text>
    </g>
    <g fill="url(#linearGradient8)" text-rendering="geometricPrecision" shape-rendering="geometricPrecision" transform="matrix(1,0,0,1,-186,123)" stroke="url(#linearGradient8)">
      <path d="M611.7713 58.14 L731.7713 118.14 L611.7713 178.14 L491.7713 118.14 Z" stroke="none" clip-path="url(#clipPath2)"/>
    </g>
    <g text-rendering="geometricPrecision" stroke-miterlimit="1.45" shape-rendering="geometricPrecision" transform="matrix(1,0,0,1,-186,123)" stroke-linecap="butt">
      <path fill="none" d="M611.7713 58.14 L731.7713 118.14 L611.7713 178.14 L491.7713 118.14 Z" clip-path="url(#clipPath2)"/>
      <text x="557.5193" xml:space="preserve" y="122.2943" clip-path="url(#clipPath2)" font-family="sans-serif" stroke="none">Is a base domain?</text>
    </g>
    <g fill="url(#linearGradient9)" text-rendering="geometricPrecision" shape-rendering="geometricPrecision" transform="matrix(1,0,0,1,-186,123)" stroke="url(#linearGradient9)">
      <path d="M371 233.8168 L511 233.8168 L531 273.8168 L511 313.8168 L371 313.8168 Z" stroke="none" clip-path="url(#clipPath2)"/>
    </g>
    <g text-rendering="geometricPrecision" stroke-miterlimit="1.45" shape-rendering="geometricPrecision" transform="matrix(1,0,0,1,-186,123)" stroke-linecap="butt">
      <path fill="none" d="M371 233.8168 L511 233.8168 L531 273.8168 L511 313.8168 L371 313.8168 Z" clip-path="url(#clipPath2)"/>
      <text x="406.7881" xml:space="preserve" y="270.9867" clip-path="url(#clipPath2)" font-family="sans-serif" stroke="none">Cannot delete </text>
      <text x="409.1934" xml:space="preserve" y="284.9555" clip-path="url(#clipPath2)" font-family="sans-serif" stroke="none">base domains</text>
    </g>
    <g text-rendering="geometricPrecision" stroke-miterlimit="1.45" shape-rendering="geometricPrecision" transform="matrix(1,0,0,1,-186,123)" stroke-linecap="butt">
      <path fill="none" d="M462.7713 -67.4992 L462.7713 -36.3968" clip-path="url(#clipPath2)"/>
    </g>
    <g text-rendering="geometricPrecision" stroke-miterlimit="1.45" shape-rendering="geometricPrecision" transform="matrix(1,0,0,1,-186,123)" stroke-linecap="butt">
      <path d="M462.7713 -28.3968 L467.7713 -40.3968 L462.7713 -37.3968 L457.7713 -40.3968 Z" stroke="none" clip-path="url(#clipPath2)"/>
      <path fill="none" d="M921 303.8314 L921 339.28 L474.3056 339.28 L474.3056 362.237" clip-path="url(#clipPath2)"/>
      <path d="M474.3056 370.237 L479.3056 358.237 L474.3056 361.237 L469.3056 358.237 Z" clip-path="url(#clipPath2)" stroke="none"/>
      <path fill="none" d="M893.5278 204.5368 L921 204.5368 L921 235.8113" clip-path="url(#clipPath2)"/>
      <path d="M921 243.8113 L926 231.8113 L921 234.8113 L916 231.8113 Z" clip-path="url(#clipPath2)" stroke="none"/>
      <text x="903.6639" xml:space="preserve" y="197.7067" clip-path="url(#clipPath2)" font-family="sans-serif" stroke="none">No</text>
      <path fill="none" d="M653.5076 204.5368 L621 204.5368 L621 225.7981" clip-path="url(#clipPath2)"/>
      <path d="M621 233.7981 L626 221.7981 L621 224.7981 L616 221.7981 Z" clip-path="url(#clipPath2)" stroke="none"/>
      <text x="622.2157" xml:space="preserve" y="197.7067" clip-path="url(#clipPath2)" font-family="sans-serif" stroke="none">Yes</text>
      <path fill="none" d="M621 313.8141 L621 329.2768 L462.7713 329.2768 L462.7713 362.0457" clip-path="url(#clipPath2)"/>
      <path d="M462.7713 370.0457 L467.7713 358.0457 L462.7713 361.0457 L457.7713 358.0457 Z" clip-path="url(#clipPath2)" stroke="none"/>
      <path fill="none" d="M342.7295 31.6032 L281 31.6032 L281 225.8125" clip-path="url(#clipPath2)"/>
      <path d="M281 233.8125 L286 221.8125 L281 224.8125 L276 221.8125 Z" clip-path="url(#clipPath2)" stroke="none"/>
      <text x="309.6814" xml:space="preserve" y="24.7731" clip-path="url(#clipPath2)" font-family="sans-serif" stroke="none">Yes</text>
      <path fill="none" d="M281 313.8043 L281 339.28 L431 339.28 L431 362.0252" clip-path="url(#clipPath2)"/>
      <path d="M431 370.0252 L436 358.0252 L431 361.0252 L426 358.0252 Z" clip-path="url(#clipPath2)" stroke="none"/>
      <path fill="none" d="M582.7704 31.6032 L611.7713 31.6032 L611.7713 50.1287" clip-path="url(#clipPath2)"/>
      <path d="M611.7713 58.1287 L616.7713 46.1287 L611.7713 49.1287 L606.7713 46.1287 Z" clip-path="url(#clipPath2)" stroke="none"/>
      <text x="593.6746" xml:space="preserve" y="24.7731" clip-path="url(#clipPath2)" font-family="sans-serif" stroke="none">No</text>
      <path fill="none" d="M731.7806 118.14 L773.5213 118.14 L773.5213 136.5062" clip-path="url(#clipPath2)"/>
      <path d="M773.5213 144.5062 L778.5213 132.5062 L773.5213 135.5062 L768.5213 132.5062 Z" clip-path="url(#clipPath2)" stroke="none"/>
      <text x="743.8963" xml:space="preserve" y="111.3099" clip-path="url(#clipPath2)" font-family="sans-serif" stroke="none">No</text>
      <path fill="none" d="M491.7492 118.14 L444.5 118.14 L444.5 225.8001" clip-path="url(#clipPath2)"/>
      <path d="M444.5 233.8001 L449.5 221.8001 L444.5 224.8001 L439.5 221.8001 Z" clip-path="url(#clipPath2)" stroke="none"/>
      <text x="458.6814" xml:space="preserve" y="111.3099" clip-path="url(#clipPath2)" font-family="sans-serif" stroke="none">Yes</text>
      <path fill="none" d="M446.665 313.8275 L446.665 361.9964" clip-path="url(#clipPath2)"/>
      <path d="M446.665 369.9964 L451.665 357.9964 L446.665 360.9964 L441.665 357.9964 Z" clip-path="url(#clipPath2)" stroke="none"/>
    </g>
  </g>
</svg>
