<?xml version="1.0" encoding="UTF-8"?><svg xmlns="http://www.w3.org/2000/svg" xmlns:xlink="http://www.w3.org/1999/xlink" fill-opacity="1" color-rendering="auto" color-interpolation="auto" text-rendering="auto" stroke="black" stroke-linecap="square" width="1028" stroke-miterlimit="10" shape-rendering="auto" stroke-opacity="1" fill="black" stroke-dasharray="none" font-weight="normal" stroke-width="1" height="748" font-family="'Dialog'" font-style="normal" stroke-linejoin="miter" font-size="12px" stroke-dashoffset="0" image-rendering="auto">
  <!--Generated by ySVG 2.5-->
  <defs id="genericDefs"/>
  <g>
    <defs id="defs1">
      <linearGradient x1="446.6584" gradientUnits="userSpaceOnUse" x2="566.6584" y1="280.9725" y2="340.9725" id="linearGradient1" spreadMethod="reflect">
        <stop stop-opacity="1" stop-color="rgb(232,238,247)" offset="0%"/>
        <stop stop-opacity="1" stop-color="rgb(183,201,227)" offset="100%"/>
      </linearGradient>
      <linearGradient x1="536.858" gradientUnits="userSpaceOnUse" x2="776.858" y1="-41.9918" y2="78.0082" id="linearGradient2" spreadMethod="reflect">
        <stop stop-opacity="1" stop-color="rgb(232,238,247)" offset="0%"/>
        <stop stop-opacity="1" stop-color="rgb(183,201,227)" offset="100%"/>
      </linearGradient>
      <linearGradient x1="458.9654" gradientUnits="userSpaceOnUse" x2="538.9655" y1="-208.2189" y2="-168.2189" id="linearGradient3" spreadMethod="reflect">
        <stop stop-opacity="1" stop-color="rgb(232,238,247)" offset="0%"/>
        <stop stop-opacity="1" stop-color="rgb(183,201,227)" offset="100%"/>
      </linearGradient>
      <linearGradient x1="423.5031" gradientUnits="userSpaceOnUse" x2="503.5031" y1="468.5783" y2="508.5783" id="linearGradient4" spreadMethod="reflect">
        <stop stop-opacity="1" stop-color="rgb(232,238,247)" offset="0%"/>
        <stop stop-opacity="1" stop-color="rgb(183,201,227)" offset="100%"/>
      </linearGradient>
      <linearGradient x1="305.6957" gradientUnits="userSpaceOnUse" x2="425.6957" y1="280.9725" y2="340.9725" id="linearGradient5" spreadMethod="reflect">
        <stop stop-opacity="1" stop-color="rgb(232,238,247)" offset="0%"/>
        <stop stop-opacity="1" stop-color="rgb(183,201,227)" offset="100%"/>
      </linearGradient>
      <linearGradient x1="703.3921" gradientUnits="userSpaceOnUse" x2="943.3921" y1="60.3725" y2="180.3725" id="linearGradient6" spreadMethod="reflect">
        <stop stop-opacity="1" stop-color="rgb(232,238,247)" offset="0%"/>
        <stop stop-opacity="1" stop-color="rgb(183,201,227)" offset="100%"/>
      </linearGradient>
      <linearGradient x1="944.6009" gradientUnits="userSpaceOnUse" x2="1104.6008" y1="270.9725" y2="350.9725" id="linearGradient7" spreadMethod="reflect">
        <stop stop-opacity="1" stop-color="rgb(232,238,247)" offset="0%"/>
        <stop stop-opacity="1" stop-color="rgb(183,201,227)" offset="100%"/>
      </linearGradient>
      <linearGradient x1="546.4839" gradientUnits="userSpaceOnUse" x2="786.4839" y1="158.682" y2="278.682" id="linearGradient8" spreadMethod="reflect">
        <stop stop-opacity="1" stop-color="rgb(232,238,247)" offset="0%"/>
        <stop stop-opacity="1" stop-color="rgb(183,201,227)" offset="100%"/>
      </linearGradient>
      <linearGradient x1="764.3044" gradientUnits="userSpaceOnUse" x2="924.3044" y1="270.9725" y2="350.9725" id="linearGradient9" spreadMethod="reflect">
        <stop stop-opacity="1" stop-color="rgb(232,238,247)" offset="0%"/>
        <stop stop-opacity="1" stop-color="rgb(183,201,227)" offset="100%"/>
      </linearGradient>
      <linearGradient x1="107.2849" gradientUnits="userSpaceOnUse" x2="267.2849" y1="270.9725" y2="350.9725" id="linearGradient10" spreadMethod="reflect">
        <stop stop-opacity="1" stop-color="rgb(232,238,247)" offset="0%"/>
        <stop stop-opacity="1" stop-color="rgb(183,201,227)" offset="100%"/>
      </linearGradient>
      <linearGradient x1="378.9654" gradientUnits="userSpaceOnUse" x2="618.9655" y1="-138.2189" y2="-18.2189" id="linearGradient11" spreadMethod="reflect">
        <stop stop-opacity="1" stop-color="rgb(232,238,247)" offset="0%"/>
        <stop stop-opacity="1" stop-color="rgb(183,201,227)" offset="100%"/>
      </linearGradient>
      <clipPath clipPathUnits="userSpaceOnUse" id="clipPath1">
        <path d="M0 0 L1028 0 L1028 748 L0 748 L0 0 Z"/>
      </clipPath>
      <clipPath clipPathUnits="userSpaceOnUse" id="clipPath2">
        <path d="M92 -224 L1120 -224 L1120 524 L92 524 L92 -224 Z"/>
      </clipPath>
    </defs>
    <g fill="white" text-rendering="geometricPrecision" shape-rendering="geometricPrecision" transform="translate(-92,224)" stroke="white">
      <rect x="92" width="1028" height="748" y="-224" clip-path="url(#clipPath2)" stroke="none"/>
    </g>
    <g fill="url(#linearGradient1)" text-rendering="geometricPrecision" shape-rendering="geometricPrecision" transform="matrix(1,0,0,1,-92,224)" stroke="url(#linearGradient1)">
      <path d="M446.6584 280.9725 L566.6584 280.9725 L566.6584 340.9725 L446.6584 340.9725 Z" stroke="none" clip-path="url(#clipPath2)"/>
    </g>
    <g text-rendering="geometricPrecision" stroke-miterlimit="1.45" shape-rendering="geometricPrecision" transform="matrix(1,0,0,1,-92,224)" stroke-linecap="butt">
      <path fill="none" d="M446.6584 280.9725 L566.6584 280.9725 L566.6584 340.9725 L446.6584 340.9725 Z" clip-path="url(#clipPath2)"/>
      <text x="460.551" xml:space="preserve" y="315.1268" clip-path="url(#clipPath2)" font-family="sans-serif" stroke="none">Update domain</text>
    </g>
    <g fill="url(#linearGradient2)" text-rendering="geometricPrecision" shape-rendering="geometricPrecision" transform="matrix(1,0,0,1,-92,224)" stroke="url(#linearGradient2)">
      <path d="M656.858 -41.9918 L776.858 18.0082 L656.858 78.0082 L536.858 18.0082 Z" stroke="none" clip-path="url(#clipPath2)"/>
    </g>
    <g text-rendering="geometricPrecision" stroke-miterlimit="1.45" shape-rendering="geometricPrecision" transform="matrix(1,0,0,1,-92,224)" stroke-linecap="butt">
      <path fill="none" d="M656.858 -41.9918 L776.858 18.0082 L656.858 78.0082 L536.858 18.0082 Z" clip-path="url(#clipPath2)"/>
      <text x="603.2564" xml:space="preserve" y="22.1625" clip-path="url(#clipPath2)" font-family="sans-serif" stroke="none">Is domain ID null?</text>
    </g>
    <g fill="url(#linearGradient3)" text-rendering="geometricPrecision" shape-rendering="geometricPrecision" transform="matrix(1,0,0,1,-92,224)" stroke="url(#linearGradient3)">
      <circle r="20" clip-path="url(#clipPath2)" cx="498.9654" cy="-188.2189" stroke="none"/>
    </g>
    <g text-rendering="geometricPrecision" stroke-miterlimit="1.45" shape-rendering="geometricPrecision" transform="matrix(1,0,0,1,-92,224)" stroke-linecap="butt">
      <circle fill="none" r="20" clip-path="url(#clipPath2)" cx="498.9654" cy="-188.2189"/>
    </g>
    <g fill="url(#linearGradient4)" text-rendering="geometricPrecision" shape-rendering="geometricPrecision" transform="matrix(1,0,0,1,-92,224)" stroke="url(#linearGradient4)">
      <rect x="423.5032" y="468.5783" clip-path="url(#clipPath2)" width="80" rx="20" ry="20" height="40" stroke="none"/>
    </g>
    <g text-rendering="geometricPrecision" stroke-miterlimit="1.45" shape-rendering="geometricPrecision" transform="matrix(1,0,0,1,-92,224)" stroke-linecap="butt">
      <rect x="423.5032" y="468.5783" clip-path="url(#clipPath2)" fill="none" width="80" rx="20" ry="20" height="40"/>
    </g>
    <g fill="url(#linearGradient5)" text-rendering="geometricPrecision" shape-rendering="geometricPrecision" transform="matrix(1,0,0,1,-92,224)" stroke="url(#linearGradient5)">
      <path d="M305.6957 280.9725 L425.6957 280.9725 L425.6957 340.9725 L305.6957 340.9725 Z" stroke="none" clip-path="url(#clipPath2)"/>
    </g>
    <g text-rendering="geometricPrecision" stroke-miterlimit="1.45" shape-rendering="geometricPrecision" transform="matrix(1,0,0,1,-92,224)" stroke-linecap="butt">
      <path fill="none" d="M305.6957 280.9725 L425.6957 280.9725 L425.6957 340.9725 L305.6957 340.9725 Z" clip-path="url(#clipPath2)"/>
      <text x="321.2494" xml:space="preserve" y="315.1268" clip-path="url(#clipPath2)" font-family="sans-serif" stroke="none">Create domain</text>
    </g>
    <g fill="url(#linearGradient6)" text-rendering="geometricPrecision" shape-rendering="geometricPrecision" transform="matrix(1,0,0,1,-92,224)" stroke="url(#linearGradient6)">
      <path d="M823.3921 60.3725 L943.3921 120.3725 L823.3921 180.3725 L703.3921 120.3725 Z" stroke="none" clip-path="url(#clipPath2)"/>
    </g>
    <g text-rendering="geometricPrecision" stroke-miterlimit="1.45" shape-rendering="geometricPrecision" transform="matrix(1,0,0,1,-92,224)" stroke-linecap="butt">
      <path fill="none" d="M823.3921 60.3725 L943.3921 120.3725 L823.3921 180.3725 L703.3921 120.3725 Z" clip-path="url(#clipPath2)"/>
      <text x="741.9468" xml:space="preserve" y="124.5268" clip-path="url(#clipPath2)" font-family="sans-serif" stroke="none">Is an entity-based domain?</text>
    </g>
    <g fill="url(#linearGradient7)" text-rendering="geometricPrecision" shape-rendering="geometricPrecision" transform="matrix(1,0,0,1,-92,224)" stroke="url(#linearGradient7)">
      <path d="M944.6009 270.9725 L1084.6008 270.9725 L1104.6008 310.9725 L1084.6008 350.9725 L944.6009 350.9725 Z" stroke="none" clip-path="url(#clipPath2)"/>
    </g>
    <g text-rendering="geometricPrecision" stroke-miterlimit="1.45" shape-rendering="geometricPrecision" transform="matrix(1,0,0,1,-92,224)" stroke-linecap="butt">
      <path fill="none" d="M944.6009 270.9725 L1084.6008 270.9725 L1104.6008 310.9725 L1084.6008 350.9725 L944.6009 350.9725 Z" clip-path="url(#clipPath2)"/>
      <text x="978.1507" xml:space="preserve" y="301.158" clip-path="url(#clipPath2)" font-family="sans-serif" stroke="none">Cannot update </text>
      <text x="985.0003" xml:space="preserve" y="315.1268" clip-path="url(#clipPath2)" font-family="sans-serif" stroke="none">entity-based </text>
      <text x="999.0042" xml:space="preserve" y="329.0955" clip-path="url(#clipPath2)" font-family="sans-serif" stroke="none">domains</text>
    </g>
    <g fill="url(#linearGradient8)" text-rendering="geometricPrecision" shape-rendering="geometricPrecision" transform="matrix(1,0,0,1,-92,224)" stroke="url(#linearGradient8)">
      <path d="M666.4839 158.682 L786.4839 218.682 L666.4839 278.682 L546.4839 218.682 Z" stroke="none" clip-path="url(#clipPath2)"/>
    </g>
    <g text-rendering="geometricPrecision" stroke-miterlimit="1.45" shape-rendering="geometricPrecision" transform="matrix(1,0,0,1,-92,224)" stroke-linecap="butt">
      <path fill="none" d="M666.4839 158.682 L786.4839 218.682 L666.4839 278.682 L546.4839 218.682 Z" clip-path="url(#clipPath2)"/>
      <text x="612.2319" xml:space="preserve" y="222.8363" clip-path="url(#clipPath2)" font-family="sans-serif" stroke="none">Is a base domain?</text>
    </g>
    <g fill="url(#linearGradient9)" text-rendering="geometricPrecision" shape-rendering="geometricPrecision" transform="matrix(1,0,0,1,-92,224)" stroke="url(#linearGradient9)">
      <path d="M764.3044 270.9725 L904.3044 270.9725 L924.3044 310.9725 L904.3044 350.9725 L764.3044 350.9725 Z" stroke="none" clip-path="url(#clipPath2)"/>
    </g>
    <g text-rendering="geometricPrecision" stroke-miterlimit="1.45" shape-rendering="geometricPrecision" transform="matrix(1,0,0,1,-92,224)" stroke-linecap="butt">
      <path fill="none" d="M764.3044 270.9725 L904.3044 270.9725 L924.3044 310.9725 L904.3044 350.9725 L764.3044 350.9725 Z" clip-path="url(#clipPath2)"/>
      <text x="797.8542" xml:space="preserve" y="308.1424" clip-path="url(#clipPath2)" font-family="sans-serif" stroke="none">Cannot update </text>
      <text x="802.4977" xml:space="preserve" y="322.1111" clip-path="url(#clipPath2)" font-family="sans-serif" stroke="none">base domains</text>
    </g>
    <g fill="url(#linearGradient10)" text-rendering="geometricPrecision" shape-rendering="geometricPrecision" transform="matrix(1,0,0,1,-92,224)" stroke="url(#linearGradient10)">
      <path d="M107.2849 270.9725 L247.2849 270.9725 L267.2849 310.9725 L247.2849 350.9725 L107.2849 350.9725 Z" stroke="none" clip-path="url(#clipPath2)"/>
    </g>
    <g text-rendering="geometricPrecision" stroke-miterlimit="1.45" shape-rendering="geometricPrecision" transform="matrix(1,0,0,1,-92,224)" stroke-linecap="butt">
      <path fill="none" d="M107.2849 270.9725 L247.2849 270.9725 L267.2849 310.9725 L247.2849 350.9725 L107.2849 350.9725 Z" clip-path="url(#clipPath2)"/>
      <text x="140.0466" xml:space="preserve" y="308.1424" clip-path="url(#clipPath2)" font-family="sans-serif" stroke="none">Domain names </text>
      <text x="140.2693" xml:space="preserve" y="322.1111" clip-path="url(#clipPath2)" font-family="sans-serif" stroke="none">must be unique</text>
    </g>
    <g fill="url(#linearGradient11)" text-rendering="geometricPrecision" shape-rendering="geometricPrecision" transform="matrix(1,0,0,1,-92,224)" stroke="url(#linearGradient11)">
      <path d="M498.9654 -138.2189 L618.9655 -78.2189 L498.9654 -18.2189 L378.9654 -78.2189 Z" stroke="none" clip-path="url(#clipPath2)"/>
    </g>
    <g text-rendering="geometricPrecision" stroke-miterlimit="1.45" shape-rendering="geometricPrecision" transform="matrix(1,0,0,1,-92,224)" stroke-linecap="butt">
      <path fill="none" d="M498.9654 -138.2189 L618.9655 -78.2189 L498.9654 -18.2189 L378.9654 -78.2189 Z" clip-path="url(#clipPath2)"/>
      <text x="439.2496" xml:space="preserve" y="-81.049" clip-path="url(#clipPath2)" font-family="sans-serif" stroke="none">Does name conflict </text>
      <text x="427.8443" xml:space="preserve" y="-67.0802" clip-path="url(#clipPath2)" font-family="sans-serif" stroke="none">with any other domain?</text>
    </g>
    <g text-rendering="geometricPrecision" stroke-miterlimit="1.45" shape-rendering="geometricPrecision" transform="matrix(1,0,0,1,-92,224)" stroke-linecap="butt">
      <path fill="none" d="M506.6584 340.9848 L506.6584 394.5986 L463.5031 394.5986 L463.5031 460.6002" clip-path="url(#clipPath2)"/>
    </g>
    <g text-rendering="geometricPrecision" stroke-miterlimit="1.45" shape-rendering="geometricPrecision" transform="matrix(1,0,0,1,-92,224)" stroke-linecap="butt">
      <path d="M463.5031 468.6002 L468.5031 456.6002 L463.5031 459.6002 L458.5031 456.6002 Z" stroke="none" clip-path="url(#clipPath2)"/>
      <path fill="none" d="M536.8317 18.0082 L365.6957 18.0082 L365.6957 272.968" clip-path="url(#clipPath2)"/>
      <path d="M365.6957 280.968 L370.6957 268.968 L365.6957 271.968 L360.6957 268.968 Z" clip-path="url(#clipPath2)" stroke="none"/>
      <text x="503.7681" xml:space="preserve" y="11.1781" clip-path="url(#clipPath2)" font-family="sans-serif" stroke="none">Yes</text>
      <path fill="none" d="M365.6957 340.9987 L365.6957 394.5986 L450.6269 394.5986 L450.6269 460.5972" clip-path="url(#clipPath2)"/>
      <path d="M450.6269 468.5972 L455.6269 456.5972 L450.6269 459.5972 L445.6269 456.5972 Z" clip-path="url(#clipPath2)" stroke="none"/>
      <path fill="none" d="M776.8459 18.0082 L823.3921 18.0082 L823.3921 52.3458" clip-path="url(#clipPath2)"/>
      <path d="M823.3921 60.3458 L828.3921 48.3458 L823.3921 51.3458 L818.3921 48.3458 Z" clip-path="url(#clipPath2)" stroke="none"/>
      <text x="788.983" xml:space="preserve" y="11.1781" clip-path="url(#clipPath2)" font-family="sans-serif" stroke="none">No</text>
      <path fill="none" d="M943.3457 120.3725 L1016.6009 120.3725 L1016.6009 263.0005" clip-path="url(#clipPath2)"/>
      <path d="M1016.6009 271.0005 L1021.6009 259.0005 L1016.6009 262.0005 L1011.6009 259.0005 Z" clip-path="url(#clipPath2)" stroke="none"/>
      <text x="955.5171" xml:space="preserve" y="113.5424" clip-path="url(#clipPath2)" font-family="sans-serif" stroke="none">Yes</text>
      <path fill="none" d="M1019.8996 350.9949 L1019.8996 430.2664 L486.6584 430.2664 L486.6584 460.8276" clip-path="url(#clipPath2)"/>
      <path d="M486.6584 468.8276 L491.6584 456.8276 L486.6584 459.8276 L481.6584 456.8276 Z" clip-path="url(#clipPath2)" stroke="none"/>
      <path fill="none" d="M703.3741 120.3725 L666.4839 120.3725 L666.4839 150.6592" clip-path="url(#clipPath2)"/>
      <path d="M666.4839 158.6592 L671.4839 146.6592 L666.4839 149.6592 L661.4839 146.6592 Z" clip-path="url(#clipPath2)" stroke="none"/>
      <text x="674.9487" xml:space="preserve" y="113.5424" clip-path="url(#clipPath2)" font-family="sans-serif" stroke="none">No</text>
      <path fill="none" d="M546.4977 218.682 L506.6584 218.682 L506.6584 273.0051" clip-path="url(#clipPath2)"/>
      <path d="M506.6584 281.0051 L511.6584 269.0051 L506.6584 272.0051 L501.6584 269.0051 Z" clip-path="url(#clipPath2)" stroke="none"/>
      <text x="518.0405" xml:space="preserve" y="211.8519" clip-path="url(#clipPath2)" font-family="sans-serif" stroke="none">No</text>
      <path fill="none" d="M786.5214 218.682 L844.3044 218.682 L844.3044 263.001" clip-path="url(#clipPath2)"/>
      <path d="M844.3044 271.001 L849.3044 259.001 L844.3044 262.001 L839.3044 259.001 Z" clip-path="url(#clipPath2)" stroke="none"/>
      <text x="798.6089" xml:space="preserve" y="211.8519" clip-path="url(#clipPath2)" font-family="sans-serif" stroke="none">Yes</text>
      <path fill="none" d="M844.3044 350.9707 L844.3044 414.5986 L474.788 414.5986 L474.788 460.607" clip-path="url(#clipPath2)"/>
      <path d="M474.788 468.607 L479.788 456.607 L474.788 459.607 L469.788 456.607 Z" clip-path="url(#clipPath2)" stroke="none"/>
      <path fill="none" d="M187.2849 350.9914 L187.2849 409.5991 L440.0508 409.5991 L440.0508 460.8721" clip-path="url(#clipPath2)"/>
      <path d="M440.0508 468.8721 L445.0508 456.8721 L440.0508 459.8721 L435.0508 456.8721 Z" clip-path="url(#clipPath2)" stroke="none"/>
      <path fill="none" d="M498.9654 -168.2189 L498.9654 -146.1935" clip-path="url(#clipPath2)"/>
      <path d="M498.9654 -138.1935 L503.9654 -150.1935 L498.9654 -147.1935 L493.9654 -150.1935 Z" clip-path="url(#clipPath2)" stroke="none"/>
      <path fill="none" d="M379.0034 -78.2189 L187.2849 -78.2189 L187.2849 263.0176" clip-path="url(#clipPath2)"/>
      <path d="M187.2849 271.0176 L192.2849 259.0176 L187.2849 262.0176 L182.2849 259.0176 Z" clip-path="url(#clipPath2)" stroke="none"/>
      <text x="345.8756" xml:space="preserve" y="-85.049" clip-path="url(#clipPath2)" font-family="sans-serif" stroke="none">Yes</text>
      <path fill="none" d="M618.9653 -78.2189 L656.858 -78.2189 L656.858 -49.9928" clip-path="url(#clipPath2)"/>
      <path d="M656.858 -41.9928 L661.858 -53.9928 L656.858 -50.9928 L651.858 -53.9928 Z" clip-path="url(#clipPath2)" stroke="none"/>
      <text x="631.0905" xml:space="preserve" y="-85.049" clip-path="url(#clipPath2)" font-family="sans-serif" stroke="none">No</text>
    </g>
  </g>
</svg>
