<?xml version="1.0" encoding="UTF-8"?><svg xmlns="http://www.w3.org/2000/svg" xmlns:xlink="http://www.w3.org/1999/xlink" fill-opacity="1" color-rendering="auto" color-interpolation="auto" text-rendering="auto" stroke="black" stroke-linecap="square" width="646" stroke-miterlimit="10" shape-rendering="auto" stroke-opacity="1" fill="black" stroke-dasharray="none" font-weight="normal" stroke-width="1" height="550" font-family="'Dialog'" font-style="normal" stroke-linejoin="miter" font-size="12px" stroke-dashoffset="0" image-rendering="auto">
  <!--Generated by ySVG 2.5-->
  <defs id="genericDefs"/>
  <g>
    <defs id="defs1">
      <linearGradient x1="1121.8339" gradientUnits="userSpaceOnUse" x2="1361.8339" y1="239.2684" y2="359.2684" id="linearGradient1" spreadMethod="reflect">
        <stop stop-opacity="1" stop-color="rgb(232,238,247)" offset="0%"/>
        <stop stop-opacity="1" stop-color="rgb(183,201,227)" offset="100%"/>
      </linearGradient>
      <linearGradient x1="1338.9277" gradientUnits="userSpaceOnUse" x2="1458.9277" y1="334.5915" y2="394.5915" id="linearGradient2" spreadMethod="reflect">
        <stop stop-opacity="1" stop-color="rgb(232,238,247)" offset="0%"/>
        <stop stop-opacity="1" stop-color="rgb(183,201,227)" offset="100%"/>
      </linearGradient>
      <linearGradient x1="1338.9277" gradientUnits="userSpaceOnUse" x2="1458.9277" y1="424.5915" y2="484.5915" id="linearGradient3" spreadMethod="reflect">
        <stop stop-opacity="1" stop-color="rgb(232,238,247)" offset="0%"/>
        <stop stop-opacity="1" stop-color="rgb(183,201,227)" offset="100%"/>
      </linearGradient>
      <linearGradient x1="843" gradientUnits="userSpaceOnUse" x2="1003" y1="350.78" y2="430.78" id="linearGradient4" spreadMethod="reflect">
        <stop stop-opacity="1" stop-color="rgb(232,238,247)" offset="0%"/>
        <stop stop-opacity="1" stop-color="rgb(183,201,227)" offset="100%"/>
      </linearGradient>
      <linearGradient x1="1023" gradientUnits="userSpaceOnUse" x2="1183" y1="350" y2="430" id="linearGradient5" spreadMethod="reflect">
        <stop stop-opacity="1" stop-color="rgb(232,238,247)" offset="0%"/>
        <stop stop-opacity="1" stop-color="rgb(183,201,227)" offset="100%"/>
      </linearGradient>
      <linearGradient x1="960" gradientUnits="userSpaceOnUse" x2="1200" y1="150.5078" y2="270.5078" id="linearGradient6" spreadMethod="reflect">
        <stop stop-opacity="1" stop-color="rgb(232,238,247)" offset="0%"/>
        <stop stop-opacity="1" stop-color="rgb(183,201,227)" offset="100%"/>
      </linearGradient>
      <linearGradient x1="1063" gradientUnits="userSpaceOnUse" x2="1143" y1="539.0372" y2="579.0372" id="linearGradient7" spreadMethod="reflect">
        <stop stop-opacity="1" stop-color="rgb(232,238,247)" offset="0%"/>
        <stop stop-opacity="1" stop-color="rgb(183,201,227)" offset="100%"/>
      </linearGradient>
      <linearGradient x1="1040" gradientUnits="userSpaceOnUse" x2="1120" y1="60" y2="100" id="linearGradient8" spreadMethod="reflect">
        <stop stop-opacity="1" stop-color="rgb(232,238,247)" offset="0%"/>
        <stop stop-opacity="1" stop-color="rgb(183,201,227)" offset="100%"/>
      </linearGradient>
      <clipPath clipPathUnits="userSpaceOnUse" id="clipPath1">
        <path d="M0 0 L646 0 L646 550 L0 550 L0 0 Z"/>
      </clipPath>
      <clipPath clipPathUnits="userSpaceOnUse" id="clipPath2">
        <path d="M828 45 L1474 45 L1474 595 L828 595 L828 45 Z"/>
      </clipPath>
    </defs>
    <g fill="white" text-rendering="geometricPrecision" shape-rendering="geometricPrecision" transform="translate(-828,-45)" stroke="white">
      <rect x="828" width="646" height="550" y="45" clip-path="url(#clipPath2)" stroke="none"/>
    </g>
    <g fill="url(#linearGradient1)" text-rendering="geometricPrecision" shape-rendering="geometricPrecision" transform="matrix(1,0,0,1,-828,-45)" stroke="url(#linearGradient1)">
      <path d="M1241.8339 239.2684 L1361.8339 299.2684 L1241.8339 359.2684 L1121.8339 299.2684 Z" stroke="none" clip-path="url(#clipPath2)"/>
    </g>
    <g text-rendering="geometricPrecision" stroke-miterlimit="1.45" shape-rendering="geometricPrecision" transform="matrix(1,0,0,1,-828,-45)" stroke-linecap="butt">
      <path fill="none" d="M1241.8339 239.2684 L1361.8339 299.2684 L1241.8339 359.2684 L1121.8339 299.2684 Z" clip-path="url(#clipPath2)"/>
      <text x="1187.1161" xml:space="preserve" y="289.4539" clip-path="url(#clipPath2)" font-family="sans-serif" stroke="none">Is it referenced by</text>
      <text x="1185.0477" xml:space="preserve" y="303.4227" clip-path="url(#clipPath2)" font-family="sans-serif" stroke="none">attributes of other </text>
      <text x="1216.2987" xml:space="preserve" y="317.3914" clip-path="url(#clipPath2)" font-family="sans-serif" stroke="none">entities?</text>
    </g>
    <g fill="url(#linearGradient2)" text-rendering="geometricPrecision" shape-rendering="geometricPrecision" transform="matrix(1,0,0,1,-828,-45)" stroke="url(#linearGradient2)">
      <path d="M1338.9277 334.5915 L1458.9277 334.5915 L1458.9277 394.5915 L1338.9277 394.5915 Z" stroke="none" clip-path="url(#clipPath2)"/>
    </g>
    <g text-rendering="geometricPrecision" stroke-miterlimit="1.45" shape-rendering="geometricPrecision" transform="matrix(1,0,0,1,-828,-45)" stroke-linecap="butt">
      <path fill="none" d="M1338.9277 334.5915 L1458.9277 334.5915 L1458.9277 394.5915 L1338.9277 394.5915 Z" clip-path="url(#clipPath2)"/>
      <text x="1359.8896" xml:space="preserve" y="361.7614" clip-path="url(#clipPath2)" font-family="sans-serif" stroke="none">Delete entity</text>
      <text x="1376.457" xml:space="preserve" y="375.7302" clip-path="url(#clipPath2)" font-family="sans-serif" stroke="none">domain</text>
    </g>
    <g fill="url(#linearGradient3)" text-rendering="geometricPrecision" shape-rendering="geometricPrecision" transform="matrix(1,0,0,1,-828,-45)" stroke="url(#linearGradient3)">
      <path d="M1338.9277 424.5915 L1458.9277 424.5915 L1458.9277 484.5915 L1338.9277 484.5915 Z" stroke="none" clip-path="url(#clipPath2)"/>
    </g>
    <g text-rendering="geometricPrecision" stroke-miterlimit="1.45" shape-rendering="geometricPrecision" transform="matrix(1,0,0,1,-828,-45)" stroke-linecap="butt">
      <path fill="none" d="M1338.9277 424.5915 L1458.9277 424.5915 L1458.9277 484.5915 L1338.9277 484.5915 Z" clip-path="url(#clipPath2)"/>
      <text x="1359.8896" xml:space="preserve" y="458.7458" clip-path="url(#clipPath2)" font-family="sans-serif" stroke="none">Delete entity</text>
    </g>
    <g fill="url(#linearGradient4)" text-rendering="geometricPrecision" shape-rendering="geometricPrecision" transform="matrix(1,0,0,1,-828,-45)" stroke="url(#linearGradient4)">
      <path d="M843 350.78 L983 350.78 L1003 390.78 L983 430.78 L843 430.78 Z" stroke="none" clip-path="url(#clipPath2)"/>
    </g>
    <g text-rendering="geometricPrecision" stroke-miterlimit="1.45" shape-rendering="geometricPrecision" transform="matrix(1,0,0,1,-828,-45)" stroke-linecap="butt">
      <path fill="none" d="M843 350.78 L983 350.78 L1003 390.78 L983 430.78 L843 430.78 Z" clip-path="url(#clipPath2)"/>
      <text x="878.7881" xml:space="preserve" y="380.9655" clip-path="url(#clipPath2)" font-family="sans-serif" stroke="none">Cannot delete </text>
      <text x="869.9287" xml:space="preserve" y="394.9343" clip-path="url(#clipPath2)" font-family="sans-serif" stroke="none">entities that have</text>
      <text x="893.5684" xml:space="preserve" y="408.903" clip-path="url(#clipPath2)" font-family="sans-serif" stroke="none">sub-types</text>
    </g>
    <g fill="url(#linearGradient5)" text-rendering="geometricPrecision" shape-rendering="geometricPrecision" transform="matrix(1,0,0,1,-828,-45)" stroke="url(#linearGradient5)">
      <path d="M1023 350 L1163 350 L1183 390 L1163 430 L1023 430 Z" stroke="none" clip-path="url(#clipPath2)"/>
    </g>
    <g text-rendering="geometricPrecision" stroke-miterlimit="1.45" shape-rendering="geometricPrecision" transform="matrix(1,0,0,1,-828,-45)" stroke-linecap="butt">
      <path fill="none" d="M1023 350 L1163 350 L1183 390 L1163 430 L1023 430 Z" clip-path="url(#clipPath2)"/>
      <text x="1058.7881" xml:space="preserve" y="373.2012" clip-path="url(#clipPath2)" font-family="sans-serif" stroke="none">Cannot delete </text>
      <text x="1052.9082" xml:space="preserve" y="387.1699" clip-path="url(#clipPath2)" font-family="sans-serif" stroke="none">entities that are </text>
      <text x="1059.1045" xml:space="preserve" y="401.1387" clip-path="url(#clipPath2)" font-family="sans-serif" stroke="none">referenced by </text>
      <text x="1062.7578" xml:space="preserve" y="415.1074" clip-path="url(#clipPath2)" font-family="sans-serif" stroke="none">other entities</text>
    </g>
    <g fill="url(#linearGradient6)" text-rendering="geometricPrecision" shape-rendering="geometricPrecision" transform="matrix(1,0,0,1,-828,-45)" stroke="url(#linearGradient6)">
      <path d="M1080 150.5078 L1200 210.5078 L1080 270.5078 L960 210.5078 Z" stroke="none" clip-path="url(#clipPath2)"/>
    </g>
    <g text-rendering="geometricPrecision" stroke-miterlimit="1.45" shape-rendering="geometricPrecision" transform="matrix(1,0,0,1,-828,-45)" stroke-linecap="butt">
      <path fill="none" d="M1080 150.5078 L1200 210.5078 L1080 270.5078 L960 210.5078 Z" clip-path="url(#clipPath2)"/>
      <text x="1017.1582" xml:space="preserve" y="207.6777" clip-path="url(#clipPath2)" font-family="sans-serif" stroke="none">Is it a super-type for </text>
      <text x="1036.5732" xml:space="preserve" y="221.6464" clip-path="url(#clipPath2)" font-family="sans-serif" stroke="none">other entities?</text>
    </g>
    <g fill="url(#linearGradient7)" text-rendering="geometricPrecision" shape-rendering="geometricPrecision" transform="matrix(1,0,0,1,-828,-45)" stroke="url(#linearGradient7)">
      <rect x="1063" y="539.0372" clip-path="url(#clipPath2)" width="80" rx="20" ry="20" height="40" stroke="none"/>
    </g>
    <g text-rendering="geometricPrecision" stroke-miterlimit="1.45" shape-rendering="geometricPrecision" transform="matrix(1,0,0,1,-828,-45)" stroke-linecap="butt">
      <rect x="1063" y="539.0372" clip-path="url(#clipPath2)" fill="none" width="80" rx="20" ry="20" height="40"/>
    </g>
    <g fill="url(#linearGradient8)" text-rendering="geometricPrecision" shape-rendering="geometricPrecision" transform="matrix(1,0,0,1,-828,-45)" stroke="url(#linearGradient8)">
      <circle r="20" clip-path="url(#clipPath2)" cx="1080" cy="80" stroke="none"/>
    </g>
    <g text-rendering="geometricPrecision" stroke-miterlimit="1.45" shape-rendering="geometricPrecision" transform="matrix(1,0,0,1,-828,-45)" stroke-linecap="butt">
      <circle fill="none" r="20" clip-path="url(#clipPath2)" cx="1080" cy="80"/>
    </g>
    <g text-rendering="geometricPrecision" stroke-miterlimit="1.45" shape-rendering="geometricPrecision" transform="matrix(1,0,0,1,-828,-45)" stroke-linecap="butt">
      <path fill="none" d="M1361.8405 299.2684 L1398.9277 299.2684 L1398.9277 326.5773" clip-path="url(#clipPath2)"/>
    </g>
    <g text-rendering="geometricPrecision" stroke-miterlimit="1.45" shape-rendering="geometricPrecision" transform="matrix(1,0,0,1,-828,-45)" stroke-linecap="butt">
      <path d="M1398.9277 334.5773 L1403.9277 322.5773 L1398.9277 325.5773 L1393.9277 322.5773 Z" stroke="none" clip-path="url(#clipPath2)"/>
      <text x="1373.9589" xml:space="preserve" y="292.4383" clip-path="url(#clipPath2)" font-family="sans-serif" stroke="none">No</text>
      <path fill="none" d="M1398.9277 394.5876 L1398.9277 416.5945" clip-path="url(#clipPath2)"/>
      <path d="M1398.9277 424.5945 L1403.9277 412.5945 L1398.9277 415.5945 L1393.9277 412.5945 Z" clip-path="url(#clipPath2)" stroke="none"/>
      <path fill="none" d="M1121.8149 299.2684 L1087 299.2684 L1087 341.9948" clip-path="url(#clipPath2)"/>
      <path d="M1087 349.9948 L1092 337.9948 L1087 340.9948 L1082 337.9948 Z" clip-path="url(#clipPath2)" stroke="none"/>
      <text x="1089.3721" xml:space="preserve" y="292.4383" clip-path="url(#clipPath2)" font-family="sans-serif" stroke="none">Yes</text>
      <path fill="none" d="M1199.9926 210.5078 L1241.8339 210.5078 L1241.8339 231.2423" clip-path="url(#clipPath2)"/>
      <path d="M1241.8339 239.2423 L1246.8339 227.2423 L1241.8339 230.2423 L1236.8339 227.2423 Z" clip-path="url(#clipPath2)" stroke="none"/>
      <text x="1212.125" xml:space="preserve" y="203.6777" clip-path="url(#clipPath2)" font-family="sans-serif" stroke="none">No</text>
      <path fill="none" d="M959.9885 210.5078 L923 210.5078 L923 342.7733" clip-path="url(#clipPath2)"/>
      <path d="M923 350.7733 L928 338.7733 L923 341.7733 L918 338.7733 Z" clip-path="url(#clipPath2)" stroke="none"/>
      <text x="926.9102" xml:space="preserve" y="203.6777" clip-path="url(#clipPath2)" font-family="sans-serif" stroke="none">Yes</text>
      <path fill="none" d="M1398.9277 484.5954 L1398.9277 510 L1123 510 L1123 531.068" clip-path="url(#clipPath2)"/>
      <path d="M1123 539.068 L1128 527.068 L1123 530.068 L1118 527.068 Z" clip-path="url(#clipPath2)" stroke="none"/>
      <path fill="none" d="M1103 430.0269 L1103 531.0603" clip-path="url(#clipPath2)"/>
      <path d="M1103 539.0603 L1108 527.0603 L1103 530.0603 L1098 527.0603 Z" clip-path="url(#clipPath2)" stroke="none"/>
      <path fill="none" d="M923 430.8014 L923 510 L1083 510 L1083 531.0332" clip-path="url(#clipPath2)"/>
      <path d="M1083 539.0332 L1088 527.0332 L1083 530.0332 L1078 527.0332 Z" clip-path="url(#clipPath2)" stroke="none"/>
      <path fill="none" d="M1080.0457 99.9707 L1080.1431 142.5752" clip-path="url(#clipPath2)"/>
      <path d="M1080.1614 150.5752 L1085.1339 138.5638 L1080.1407 141.5752 L1075.1339 138.5866 Z" clip-path="url(#clipPath2)" stroke="none"/>
    </g>
  </g>
</svg>
