<?xml version="1.0" encoding="UTF-8"?><svg xmlns="http://www.w3.org/2000/svg" xmlns:xlink="http://www.w3.org/1999/xlink" fill-opacity="1" color-rendering="auto" color-interpolation="auto" text-rendering="auto" stroke="black" stroke-linecap="square" width="903" stroke-miterlimit="10" shape-rendering="auto" stroke-opacity="1" fill="black" stroke-dasharray="none" font-weight="normal" stroke-width="1" height="880" font-family="'Dialog'" font-style="normal" stroke-linejoin="miter" font-size="12px" stroke-dashoffset="0" image-rendering="auto">
  <!--Generated by ySVG 2.5-->
  <defs id="genericDefs"/>
  <g>
    <defs id="defs1">
      <linearGradient x1="606.9982" gradientUnits="userSpaceOnUse" x2="726.9982" y1="383.4473" y2="443.4473" id="linearGradient1" spreadMethod="reflect">
        <stop stop-opacity="1" stop-color="rgb(232,238,247)" offset="0%"/>
        <stop stop-opacity="1" stop-color="rgb(183,201,227)" offset="100%"/>
      </linearGradient>
      <linearGradient x1="377.0576" gradientUnits="userSpaceOnUse" x2="617.0576" y1="47.391" y2="167.391" id="linearGradient2" spreadMethod="reflect">
        <stop stop-opacity="1" stop-color="rgb(232,238,247)" offset="0%"/>
        <stop stop-opacity="1" stop-color="rgb(183,201,227)" offset="100%"/>
      </linearGradient>
      <linearGradient x1="281.3713" gradientUnits="userSpaceOnUse" x2="361.3713" y1="-113.3769" y2="-73.3769" id="linearGradient3" spreadMethod="reflect">
        <stop stop-opacity="1" stop-color="rgb(232,238,247)" offset="0%"/>
        <stop stop-opacity="1" stop-color="rgb(183,201,227)" offset="100%"/>
      </linearGradient>
      <linearGradient x1="436.1736" gradientUnits="userSpaceOnUse" x2="516.1736" y1="695.7181" y2="735.7181" id="linearGradient4" spreadMethod="reflect">
        <stop stop-opacity="1" stop-color="rgb(232,238,247)" offset="0%"/>
        <stop stop-opacity="1" stop-color="rgb(183,201,227)" offset="100%"/>
      </linearGradient>
      <linearGradient x1="546.9982" gradientUnits="userSpaceOnUse" x2="786.9982" y1="475.6228" y2="595.6229" id="linearGradient5" spreadMethod="reflect">
        <stop stop-opacity="1" stop-color="rgb(232,238,247)" offset="0%"/>
        <stop stop-opacity="1" stop-color="rgb(183,201,227)" offset="100%"/>
      </linearGradient>
      <linearGradient x1="409.3178" gradientUnits="userSpaceOnUse" x2="529.3178" y1="353.2075" y2="413.2075" id="linearGradient6" spreadMethod="reflect">
        <stop stop-opacity="1" stop-color="rgb(232,238,247)" offset="0%"/>
        <stop stop-opacity="1" stop-color="rgb(183,201,227)" offset="100%"/>
      </linearGradient>
      <linearGradient x1="767.7982" gradientUnits="userSpaceOnUse" x2="887.7982" y1="567.2658" y2="627.2658" id="linearGradient7" spreadMethod="reflect">
        <stop stop-opacity="1" stop-color="rgb(232,238,247)" offset="0%"/>
        <stop stop-opacity="1" stop-color="rgb(183,201,227)" offset="100%"/>
      </linearGradient>
      <linearGradient x1="409.3178" gradientUnits="userSpaceOnUse" x2="529.3178" y1="443.2075" y2="503.2075" id="linearGradient8" spreadMethod="reflect">
        <stop stop-opacity="1" stop-color="rgb(232,238,247)" offset="0%"/>
        <stop stop-opacity="1" stop-color="rgb(183,201,227)" offset="100%"/>
      </linearGradient>
      <linearGradient x1="219.3178" gradientUnits="userSpaceOnUse" x2="459.3178" y1="150.3374" y2="270.3374" id="linearGradient9" spreadMethod="reflect">
        <stop stop-opacity="1" stop-color="rgb(232,238,247)" offset="0%"/>
        <stop stop-opacity="1" stop-color="rgb(183,201,227)" offset="100%"/>
      </linearGradient>
      <linearGradient x1="126.9771" gradientUnits="userSpaceOnUse" x2="246.9771" y1="247.6219" y2="307.6219" id="linearGradient10" spreadMethod="reflect">
        <stop stop-opacity="1" stop-color="rgb(232,238,247)" offset="0%"/>
        <stop stop-opacity="1" stop-color="rgb(183,201,227)" offset="100%"/>
      </linearGradient>
      <linearGradient x1="201.3713" gradientUnits="userSpaceOnUse" x2="441.3713" y1="-40.1394" y2="79.8606" id="linearGradient11" spreadMethod="reflect">
        <stop stop-opacity="1" stop-color="rgb(232,238,247)" offset="0%"/>
        <stop stop-opacity="1" stop-color="rgb(183,201,227)" offset="100%"/>
      </linearGradient>
      <linearGradient x1="15.4664" gradientUnits="userSpaceOnUse" x2="175.4664" y1="532.7872" y2="612.7872" id="linearGradient12" spreadMethod="reflect">
        <stop stop-opacity="1" stop-color="rgb(232,238,247)" offset="0%"/>
        <stop stop-opacity="1" stop-color="rgb(183,201,227)" offset="100%"/>
      </linearGradient>
      <clipPath clipPathUnits="userSpaceOnUse" id="clipPath1">
        <path d="M0 0 L903 0 L903 880 L0 880 L0 0 Z"/>
      </clipPath>
      <clipPath clipPathUnits="userSpaceOnUse" id="clipPath2">
        <path d="M0 -129 L903 -129 L903 751 L0 751 L0 -129 Z"/>
      </clipPath>
    </defs>
    <g fill="white" text-rendering="geometricPrecision" shape-rendering="geometricPrecision" transform="translate(0,129)" stroke="white">
      <rect x="0" width="903" height="880" y="-129" clip-path="url(#clipPath2)" stroke="none"/>
    </g>
    <g fill="url(#linearGradient1)" text-rendering="geometricPrecision" shape-rendering="geometricPrecision" transform="matrix(1,0,0,1,0,129)" stroke="url(#linearGradient1)">
      <path d="M606.9982 383.4473 L726.9982 383.4473 L726.9982 443.4473 L606.9982 443.4473 Z" stroke="none" clip-path="url(#clipPath2)"/>
    </g>
    <g text-rendering="geometricPrecision" stroke-miterlimit="1.45" shape-rendering="geometricPrecision" transform="matrix(1,0,0,1,0,129)" stroke-linecap="butt">
      <path fill="none" d="M606.9982 383.4473 L726.9982 383.4473 L726.9982 443.4473 L606.9982 443.4473 Z" clip-path="url(#clipPath2)"/>
      <text x="625.9445" xml:space="preserve" y="417.6016" clip-path="url(#clipPath2)" font-family="sans-serif" stroke="none">Update entity</text>
    </g>
    <g fill="url(#linearGradient2)" text-rendering="geometricPrecision" shape-rendering="geometricPrecision" transform="matrix(1,0,0,1,0,129)" stroke="url(#linearGradient2)">
      <path d="M497.0576 47.391 L617.0576 107.391 L497.0576 167.391 L377.0576 107.391 Z" stroke="none" clip-path="url(#clipPath2)"/>
    </g>
    <g text-rendering="geometricPrecision" stroke-miterlimit="1.45" shape-rendering="geometricPrecision" transform="matrix(1,0,0,1,0,129)" stroke-linecap="butt">
      <path fill="none" d="M497.0576 47.391 L617.0576 107.391 L497.0576 167.391 L377.0576 107.391 Z" clip-path="url(#clipPath2)"/>
      <text x="448.5097" xml:space="preserve" y="111.5453" clip-path="url(#clipPath2)" font-family="sans-serif" stroke="none">Is entity ID null?</text>
    </g>
    <g fill="url(#linearGradient3)" text-rendering="geometricPrecision" shape-rendering="geometricPrecision" transform="matrix(1,0,0,1,0,129)" stroke="url(#linearGradient3)">
      <circle r="20" clip-path="url(#clipPath2)" cx="321.3713" cy="-93.3769" stroke="none"/>
    </g>
    <g text-rendering="geometricPrecision" stroke-miterlimit="1.45" shape-rendering="geometricPrecision" transform="matrix(1,0,0,1,0,129)" stroke-linecap="butt">
      <circle fill="none" r="20" clip-path="url(#clipPath2)" cx="321.3713" cy="-93.3769"/>
    </g>
    <g fill="url(#linearGradient4)" text-rendering="geometricPrecision" shape-rendering="geometricPrecision" transform="matrix(1,0,0,1,0,129)" stroke="url(#linearGradient4)">
      <rect x="436.1736" y="695.7181" clip-path="url(#clipPath2)" width="80" rx="20" ry="20" height="40" stroke="none"/>
    </g>
    <g text-rendering="geometricPrecision" stroke-miterlimit="1.45" shape-rendering="geometricPrecision" transform="matrix(1,0,0,1,0,129)" stroke-linecap="butt">
      <rect x="436.1736" y="695.7181" clip-path="url(#clipPath2)" fill="none" width="80" rx="20" ry="20" height="40"/>
    </g>
    <g fill="url(#linearGradient5)" text-rendering="geometricPrecision" shape-rendering="geometricPrecision" transform="matrix(1,0,0,1,0,129)" stroke="url(#linearGradient5)">
      <path d="M666.9982 475.6228 L786.9982 535.6229 L666.9982 595.6229 L546.9982 535.6229 Z" stroke="none" clip-path="url(#clipPath2)"/>
    </g>
    <g text-rendering="geometricPrecision" stroke-miterlimit="1.45" shape-rendering="geometricPrecision" transform="matrix(1,0,0,1,0,129)" stroke-linecap="butt">
      <path fill="none" d="M666.9982 475.6228 L786.9982 535.6229 L666.9982 595.6229 L546.9982 535.6229 Z" clip-path="url(#clipPath2)"/>
      <text x="605.7794" xml:space="preserve" y="539.7772" clip-path="url(#clipPath2)" font-family="sans-serif" stroke="none">Has name changed?</text>
    </g>
    <g fill="url(#linearGradient6)" text-rendering="geometricPrecision" shape-rendering="geometricPrecision" transform="matrix(1,0,0,1,0,129)" stroke="url(#linearGradient6)">
      <path d="M409.3178 353.2075 L529.3178 353.2075 L529.3178 413.2075 L409.3178 413.2075 Z" stroke="none" clip-path="url(#clipPath2)"/>
    </g>
    <g text-rendering="geometricPrecision" stroke-miterlimit="1.45" shape-rendering="geometricPrecision" transform="matrix(1,0,0,1,0,129)" stroke-linecap="butt">
      <path fill="none" d="M409.3178 353.2075 L529.3178 353.2075 L529.3178 413.2075 L409.3178 413.2075 Z" clip-path="url(#clipPath2)"/>
      <text x="429.9252" xml:space="preserve" y="387.3618" clip-path="url(#clipPath2)" font-family="sans-serif" stroke="none">Create entity</text>
    </g>
    <g fill="url(#linearGradient7)" text-rendering="geometricPrecision" shape-rendering="geometricPrecision" transform="matrix(1,0,0,1,0,129)" stroke="url(#linearGradient7)">
      <path d="M767.7982 567.2658 L887.7982 567.2658 L887.7982 627.2658 L767.7982 627.2658 Z" stroke="none" clip-path="url(#clipPath2)"/>
    </g>
    <g text-rendering="geometricPrecision" stroke-miterlimit="1.45" shape-rendering="geometricPrecision" transform="matrix(1,0,0,1,0,129)" stroke-linecap="butt">
      <path fill="none" d="M767.7982 567.2658 L887.7982 567.2658 L887.7982 627.2658 L767.7982 627.2658 Z" clip-path="url(#clipPath2)"/>
      <text x="784.8372" xml:space="preserve" y="594.4357" clip-path="url(#clipPath2)" font-family="sans-serif" stroke="none">Update entity </text>
      <text x="805.3275" xml:space="preserve" y="608.4045" clip-path="url(#clipPath2)" font-family="sans-serif" stroke="none">domain</text>
    </g>
    <g fill="url(#linearGradient8)" text-rendering="geometricPrecision" shape-rendering="geometricPrecision" transform="matrix(1,0,0,1,0,129)" stroke="url(#linearGradient8)">
      <path d="M409.3178 443.2075 L529.3178 443.2075 L529.3178 503.2075 L409.3178 503.2075 Z" stroke="none" clip-path="url(#clipPath2)"/>
    </g>
    <g text-rendering="geometricPrecision" stroke-miterlimit="1.45" shape-rendering="geometricPrecision" transform="matrix(1,0,0,1,0,129)" stroke-linecap="butt">
      <path fill="none" d="M409.3178 443.2075 L529.3178 443.2075 L529.3178 503.2075 L409.3178 503.2075 Z" clip-path="url(#clipPath2)"/>
      <text x="424.8715" xml:space="preserve" y="470.3774" clip-path="url(#clipPath2)" font-family="sans-serif" stroke="none">Create domain</text>
      <text x="441.7436" xml:space="preserve" y="484.3461" clip-path="url(#clipPath2)" font-family="sans-serif" stroke="none">for entity</text>
    </g>
    <g fill="url(#linearGradient9)" text-rendering="geometricPrecision" shape-rendering="geometricPrecision" transform="matrix(1,0,0,1,0,129)" stroke="url(#linearGradient9)">
      <path d="M339.3178 150.3374 L459.3178 210.3374 L339.3178 270.3374 L219.3178 210.3374 Z" stroke="none" clip-path="url(#clipPath2)"/>
    </g>
    <g text-rendering="geometricPrecision" stroke-miterlimit="1.45" shape-rendering="geometricPrecision" transform="matrix(1,0,0,1,0,129)" stroke-linecap="butt">
      <path fill="none" d="M339.3178 150.3374 L459.3178 210.3374 L339.3178 270.3374 L219.3178 210.3374 Z" clip-path="url(#clipPath2)"/>
      <text x="265.935" xml:space="preserve" y="214.4917" clip-path="url(#clipPath2)" font-family="sans-serif" stroke="none">Is namespace specified?</text>
    </g>
    <g fill="url(#linearGradient10)" text-rendering="geometricPrecision" shape-rendering="geometricPrecision" transform="matrix(1,0,0,1,0,129)" stroke="url(#linearGradient10)">
      <path d="M126.9771 247.6219 L246.9771 247.6219 L246.9771 307.6219 L126.9771 307.6219 Z" stroke="none" clip-path="url(#clipPath2)"/>
    </g>
    <g text-rendering="geometricPrecision" stroke-miterlimit="1.45" shape-rendering="geometricPrecision" transform="matrix(1,0,0,1,0,129)" stroke-linecap="butt">
      <path fill="none" d="M126.9771 247.6219 L246.9771 247.6219 L246.9771 307.6219 L126.9771 307.6219 Z" clip-path="url(#clipPath2)"/>
      <text x="151.3579" xml:space="preserve" y="274.7919" clip-path="url(#clipPath2)" font-family="sans-serif" stroke="none">Get default </text>
      <text x="152.3599" xml:space="preserve" y="288.7606" clip-path="url(#clipPath2)" font-family="sans-serif" stroke="none">namespace</text>
    </g>
    <g fill="url(#linearGradient11)" text-rendering="geometricPrecision" shape-rendering="geometricPrecision" transform="matrix(1,0,0,1,0,129)" stroke="url(#linearGradient11)">
      <path d="M321.3713 -40.1394 L441.3713 19.8606 L321.3713 79.8606 L201.3713 19.8606 Z" stroke="none" clip-path="url(#clipPath2)"/>
    </g>
    <g text-rendering="geometricPrecision" stroke-miterlimit="1.45" shape-rendering="geometricPrecision" transform="matrix(1,0,0,1,0,129)" stroke-linecap="butt">
      <path fill="none" d="M321.3713 -40.1394 L441.3713 19.8606 L321.3713 79.8606 L201.3713 19.8606 Z" clip-path="url(#clipPath2)"/>
      <text x="247.3469" xml:space="preserve" y="17.0306" clip-path="url(#clipPath2)" font-family="sans-serif" stroke="none">Does new name conflict </text>
      <text x="255.3039" xml:space="preserve" y="30.9993" clip-path="url(#clipPath2)" font-family="sans-serif" stroke="none">with any other entity?</text>
    </g>
    <g fill="url(#linearGradient12)" text-rendering="geometricPrecision" shape-rendering="geometricPrecision" transform="matrix(1,0,0,1,0,129)" stroke="url(#linearGradient12)">
      <path d="M15.4664 532.7872 L155.4664 532.7872 L175.4664 572.7872 L155.4664 612.7872 L15.4664 612.7872 Z" stroke="none" clip-path="url(#clipPath2)"/>
    </g>
    <g text-rendering="geometricPrecision" stroke-miterlimit="1.45" shape-rendering="geometricPrecision" transform="matrix(1,0,0,1,0,129)" stroke-linecap="butt">
      <path fill="none" d="M15.4664 532.7872 L155.4664 532.7872 L175.4664 572.7872 L155.4664 612.7872 L15.4664 612.7872 Z" clip-path="url(#clipPath2)"/>
      <text x="53.9938" xml:space="preserve" y="569.9572" clip-path="url(#clipPath2)" font-family="sans-serif" stroke="none">Entity names </text>
      <text x="48.4508" xml:space="preserve" y="583.9259" clip-path="url(#clipPath2)" font-family="sans-serif" stroke="none">must be unique</text>
    </g>
    <g text-rendering="geometricPrecision" stroke-miterlimit="1.45" shape-rendering="geometricPrecision" transform="matrix(1,0,0,1,0,129)" stroke-linecap="butt">
      <path fill="none" d="M617.0547 107.391 L663.9754 107.391 L663.9754 375.4219" clip-path="url(#clipPath2)"/>
    </g>
    <g text-rendering="geometricPrecision" stroke-miterlimit="1.45" shape-rendering="geometricPrecision" transform="matrix(1,0,0,1,0,129)" stroke-linecap="butt">
      <path d="M663.9754 383.4219 L668.9754 371.4219 L663.9754 374.4219 L658.9754 371.4219 Z" stroke="none" clip-path="url(#clipPath2)"/>
      <text x="629.1826" xml:space="preserve" y="100.5609" clip-path="url(#clipPath2)" font-family="sans-serif" stroke="none">No</text>
      <path fill="none" d="M666.9982 443.4473 L666.9982 459.9692 L666.4695 459.9692 L666.4695 467.8781" clip-path="url(#clipPath2)"/>
      <path d="M666.4695 475.8781 L671.4695 463.8781 L666.4695 466.8781 L661.4695 463.8781 Z" clip-path="url(#clipPath2)" stroke="none"/>
      <path fill="none" d="M546.9965 535.6229 L485.2711 535.6229 L485.2711 687.679" clip-path="url(#clipPath2)"/>
      <path d="M485.2711 695.679 L490.2711 683.679 L485.2711 686.679 L480.2711 683.679 Z" clip-path="url(#clipPath2)" stroke="none"/>
      <text x="518.5548" xml:space="preserve" y="528.7928" clip-path="url(#clipPath2)" font-family="sans-serif" stroke="none">No</text>
      <path fill="none" d="M786.9958 535.6229 L827.7982 535.6229 L827.7982 559.2658" clip-path="url(#clipPath2)"/>
      <path d="M827.7982 567.2658 L832.7982 555.2658 L827.7982 558.2658 L822.7982 555.2658 Z" clip-path="url(#clipPath2)" stroke="none"/>
      <text x="799.1232" xml:space="preserve" y="528.7928" clip-path="url(#clipPath2)" font-family="sans-serif" stroke="none">Yes</text>
      <path fill="none" d="M827.7982 627.3049 L827.7982 647.2658 L498.1451 647.2658 L498.1451 687.857" clip-path="url(#clipPath2)"/>
      <path d="M498.1451 695.857 L503.1451 683.857 L498.1451 686.857 L493.1451 683.857 Z" clip-path="url(#clipPath2)" stroke="none"/>
      <path fill="none" d="M469.3178 413.2395 L469.3178 435.1842" clip-path="url(#clipPath2)"/>
      <path d="M469.3178 443.1842 L474.3178 431.1842 L469.3178 434.1842 L464.3178 431.1842 Z" clip-path="url(#clipPath2)" stroke="none"/>
      <path fill="none" d="M471.6323 503.2547 L471.6323 687.6926" clip-path="url(#clipPath2)"/>
      <path d="M471.6323 695.6926 L476.6323 683.6926 L471.6323 686.6926 L466.6323 683.6926 Z" clip-path="url(#clipPath2)" stroke="none"/>
      <path fill="none" d="M377.0508 107.391 L337.5484 107.391 L337.5484 143.2081" clip-path="url(#clipPath2)"/>
      <path d="M337.5484 151.2081 L342.5484 139.2081 L337.5484 142.2081 L332.5484 139.2081 Z" clip-path="url(#clipPath2)" stroke="none"/>
      <text x="343.9677" xml:space="preserve" y="100.5609" clip-path="url(#clipPath2)" font-family="sans-serif" stroke="none">Yes</text>
      <path fill="none" d="M459.3276 210.3374 L499.3178 210.3374 L499.3178 345.2075" clip-path="url(#clipPath2)"/>
      <path d="M499.3178 353.2075 L504.3178 341.2075 L499.3178 344.2075 L494.3178 341.2075 Z" clip-path="url(#clipPath2)" stroke="none"/>
      <text x="471.4428" xml:space="preserve" y="203.5074" clip-path="url(#clipPath2)" font-family="sans-serif" stroke="none">Yes</text>
      <path fill="none" d="M219.3053 210.3374 L186.9771 210.3374 L186.9771 239.6219" clip-path="url(#clipPath2)"/>
      <path d="M186.9771 247.6219 L191.9771 235.6219 L186.9771 238.6219 L181.9771 235.6219 Z" clip-path="url(#clipPath2)" stroke="none"/>
      <text x="190.8745" xml:space="preserve" y="203.5074" clip-path="url(#clipPath2)" font-family="sans-serif" stroke="none">No</text>
      <path fill="none" d="M186.9771 307.661 L186.9771 327.6219 L439.3178 327.6219 L439.3178 345.2075" clip-path="url(#clipPath2)"/>
      <path d="M439.3178 353.2075 L444.3178 341.2075 L439.3178 344.2075 L434.3178 341.2075 Z" clip-path="url(#clipPath2)" stroke="none"/>
      <path fill="none" d="M321.3713 -73.3769 L321.3713 -48.0973" clip-path="url(#clipPath2)"/>
      <path d="M321.3713 -40.0973 L326.3713 -52.0973 L321.3713 -49.0973 L316.3713 -52.0973 Z" clip-path="url(#clipPath2)" stroke="none"/>
      <path fill="none" d="M441.3407 19.8606 L497.0576 19.8606 L497.0576 39.3852" clip-path="url(#clipPath2)"/>
      <path d="M497.0576 47.3852 L502.0576 35.3852 L497.0576 38.3852 L492.0576 35.3852 Z" clip-path="url(#clipPath2)" stroke="none"/>
      <text x="453.4963" xml:space="preserve" y="13.0306" clip-path="url(#clipPath2)" font-family="sans-serif" stroke="none">No</text>
      <path fill="none" d="M201.3869 19.8606 L95.4664 19.8606 L95.4664 524.7959" clip-path="url(#clipPath2)"/>
      <path d="M95.4664 532.7959 L100.4664 520.7959 L95.4664 523.7959 L90.4664 520.7959 Z" clip-path="url(#clipPath2)" stroke="none"/>
      <text x="168.2814" xml:space="preserve" y="13.0306" clip-path="url(#clipPath2)" font-family="sans-serif" stroke="none">Yes</text>
      <path fill="none" d="M95.4664 612.7681 L95.4664 647.8385 L456.1736 647.8385 L456.1736 687.6816" clip-path="url(#clipPath2)"/>
      <path d="M456.1736 695.6816 L461.1736 683.6816 L456.1736 686.6816 L451.1736 683.6816 Z" clip-path="url(#clipPath2)" stroke="none"/>
    </g>
  </g>
</svg>
