<?xml version="1.0" encoding="UTF-8"?><svg xmlns="http://www.w3.org/2000/svg" xmlns:xlink="http://www.w3.org/1999/xlink" fill-opacity="1" color-rendering="auto" color-interpolation="auto" text-rendering="auto" stroke="black" stroke-linecap="square" width="655" stroke-miterlimit="10" shape-rendering="auto" stroke-opacity="1" fill="black" stroke-dasharray="none" font-weight="normal" stroke-width="1" height="820" font-family="'Dialog'" font-style="normal" stroke-linejoin="miter" font-size="12px" stroke-dashoffset="0" image-rendering="auto">
  <!--Generated by ySVG 2.5-->
  <defs id="genericDefs"/>
  <g>
    <defs id="defs1">
      <linearGradient x1="420" gradientUnits="userSpaceOnUse" x2="540" y1="254.8" y2="314.8" id="linearGradient1" spreadMethod="reflect">
        <stop stop-opacity="1" stop-color="rgb(232,238,247)" offset="0%"/>
        <stop stop-opacity="1" stop-color="rgb(183,201,227)" offset="100%"/>
      </linearGradient>
      <linearGradient x1="351.7713" gradientUnits="userSpaceOnUse" x2="591.7713" y1="60" y2="180" id="linearGradient2" spreadMethod="reflect">
        <stop stop-opacity="1" stop-color="rgb(232,238,247)" offset="0%"/>
        <stop stop-opacity="1" stop-color="rgb(183,201,227)" offset="100%"/>
      </linearGradient>
      <linearGradient x1="431.7713" gradientUnits="userSpaceOnUse" x2="511.7713" y1="-19.1024" y2="20.8976" id="linearGradient3" spreadMethod="reflect">
        <stop stop-opacity="1" stop-color="rgb(232,238,247)" offset="0%"/>
        <stop stop-opacity="1" stop-color="rgb(183,201,227)" offset="100%"/>
      </linearGradient>
      <linearGradient x1="380" gradientUnits="userSpaceOnUse" x2="460" y1="730" y2="770" id="linearGradient4" spreadMethod="reflect">
        <stop stop-opacity="1" stop-color="rgb(232,238,247)" offset="0%"/>
        <stop stop-opacity="1" stop-color="rgb(183,201,227)" offset="100%"/>
      </linearGradient>
      <linearGradient x1="170" gradientUnits="userSpaceOnUse" x2="410" y1="162.8032" y2="282.8032" id="linearGradient5" spreadMethod="reflect">
        <stop stop-opacity="1" stop-color="rgb(232,238,247)" offset="0%"/>
        <stop stop-opacity="1" stop-color="rgb(183,201,227)" offset="100%"/>
      </linearGradient>
      <linearGradient x1="420" gradientUnits="userSpaceOnUse" x2="540" y1="344.8" y2="404.8" id="linearGradient6" spreadMethod="reflect">
        <stop stop-opacity="1" stop-color="rgb(232,238,247)" offset="0%"/>
        <stop stop-opacity="1" stop-color="rgb(183,201,227)" offset="100%"/>
      </linearGradient>
      <linearGradient x1="556.25" gradientUnits="userSpaceOnUse" x2="676.25" y1="442.3" y2="502.3" id="linearGradient7" spreadMethod="reflect">
        <stop stop-opacity="1" stop-color="rgb(232,238,247)" offset="0%"/>
        <stop stop-opacity="1" stop-color="rgb(183,201,227)" offset="100%"/>
      </linearGradient>
      <linearGradient x1="556.25" gradientUnits="userSpaceOnUse" x2="676.25" y1="527.3" y2="587.3" id="linearGradient8" spreadMethod="reflect">
        <stop stop-opacity="1" stop-color="rgb(232,238,247)" offset="0%"/>
        <stop stop-opacity="1" stop-color="rgb(183,201,227)" offset="100%"/>
      </linearGradient>
      <linearGradient x1="556.25" gradientUnits="userSpaceOnUse" x2="676.25" y1="617.3" y2="677.3" id="linearGradient9" spreadMethod="reflect">
        <stop stop-opacity="1" stop-color="rgb(232,238,247)" offset="0%"/>
        <stop stop-opacity="1" stop-color="rgb(183,201,227)" offset="100%"/>
      </linearGradient>
      <linearGradient x1="52.5" gradientUnits="userSpaceOnUse" x2="212.5" y1="290" y2="370" id="linearGradient10" spreadMethod="reflect">
        <stop stop-opacity="1" stop-color="rgb(232,238,247)" offset="0%"/>
        <stop stop-opacity="1" stop-color="rgb(183,201,227)" offset="100%"/>
      </linearGradient>
      <clipPath clipPathUnits="userSpaceOnUse" id="clipPath1">
        <path d="M0 0 L655 0 L655 820 L0 820 L0 0 Z"/>
      </clipPath>
      <clipPath clipPathUnits="userSpaceOnUse" id="clipPath2">
        <path d="M37 -35 L692 -35 L692 785 L37 785 L37 -35 Z"/>
      </clipPath>
    </defs>
    <g fill="white" text-rendering="geometricPrecision" shape-rendering="geometricPrecision" transform="translate(-37,35)" stroke="white">
      <rect x="37" width="655" height="820" y="-35" clip-path="url(#clipPath2)" stroke="none"/>
    </g>
    <g fill="url(#linearGradient1)" text-rendering="geometricPrecision" shape-rendering="geometricPrecision" transform="matrix(1,0,0,1,-37,35)" stroke="url(#linearGradient1)">
      <path d="M420 254.8 L540 254.8 L540 314.8 L420 314.8 Z" stroke="none" clip-path="url(#clipPath2)"/>
    </g>
    <g text-rendering="geometricPrecision" stroke-miterlimit="1.45" shape-rendering="geometricPrecision" transform="matrix(1,0,0,1,-37,35)" stroke-linecap="butt">
      <path fill="none" d="M420 254.8 L540 254.8 L540 314.8 L420 314.8 Z" clip-path="url(#clipPath2)"/>
      <text x="429.082" xml:space="preserve" y="288.9543" clip-path="url(#clipPath2)" font-family="sans-serif" stroke="none">Delete attributes</text>
    </g>
    <g fill="url(#linearGradient2)" text-rendering="geometricPrecision" shape-rendering="geometricPrecision" transform="matrix(1,0,0,1,-37,35)" stroke="url(#linearGradient2)">
      <path d="M471.7713 60 L591.7713 120 L471.7713 180 L351.7713 120 Z" stroke="none" clip-path="url(#clipPath2)"/>
    </g>
    <g text-rendering="geometricPrecision" stroke-miterlimit="1.45" shape-rendering="geometricPrecision" transform="matrix(1,0,0,1,-37,35)" stroke-linecap="butt">
      <path fill="none" d="M471.7713 60 L591.7713 120 L471.7713 180 L351.7713 120 Z" clip-path="url(#clipPath2)"/>
      <text x="434.1658" xml:space="preserve" y="117.1699" clip-path="url(#clipPath2)" font-family="sans-serif" stroke="none">Does model </text>
      <text x="429.6072" xml:space="preserve" y="131.1387" clip-path="url(#clipPath2)" font-family="sans-serif" stroke="none">have entities?</text>
    </g>
    <g fill="url(#linearGradient3)" text-rendering="geometricPrecision" shape-rendering="geometricPrecision" transform="matrix(1,0,0,1,-37,35)" stroke="url(#linearGradient3)">
      <circle r="20" clip-path="url(#clipPath2)" cx="471.7713" cy="0.8976" stroke="none"/>
    </g>
    <g text-rendering="geometricPrecision" stroke-miterlimit="1.45" shape-rendering="geometricPrecision" transform="matrix(1,0,0,1,-37,35)" stroke-linecap="butt">
      <circle fill="none" r="20" clip-path="url(#clipPath2)" cx="471.7713" cy="0.8976"/>
    </g>
    <g fill="url(#linearGradient4)" text-rendering="geometricPrecision" shape-rendering="geometricPrecision" transform="matrix(1,0,0,1,-37,35)" stroke="url(#linearGradient4)">
      <rect x="380" y="730" clip-path="url(#clipPath2)" width="80" rx="20" ry="20" height="40" stroke="none"/>
    </g>
    <g text-rendering="geometricPrecision" stroke-miterlimit="1.45" shape-rendering="geometricPrecision" transform="matrix(1,0,0,1,-37,35)" stroke-linecap="butt">
      <rect x="380" y="730" clip-path="url(#clipPath2)" fill="none" width="80" rx="20" ry="20" height="40"/>
    </g>
    <g fill="url(#linearGradient5)" text-rendering="geometricPrecision" shape-rendering="geometricPrecision" transform="matrix(1,0,0,1,-37,35)" stroke="url(#linearGradient5)">
      <path d="M290 162.8032 L410 222.8032 L290 282.8032 L170 222.8032 Z" stroke="none" clip-path="url(#clipPath2)"/>
    </g>
    <g text-rendering="geometricPrecision" stroke-miterlimit="1.45" shape-rendering="geometricPrecision" transform="matrix(1,0,0,1,-37,35)" stroke-linecap="butt">
      <path fill="none" d="M290 162.8032 L410 222.8032 L290 282.8032 L170 222.8032 Z" clip-path="url(#clipPath2)"/>
      <text x="228.1543" xml:space="preserve" y="226.9575" clip-path="url(#clipPath2)" font-family="sans-serif" stroke="none">Was force specified?</text>
    </g>
    <g fill="url(#linearGradient6)" text-rendering="geometricPrecision" shape-rendering="geometricPrecision" transform="matrix(1,0,0,1,-37,35)" stroke="url(#linearGradient6)">
      <path d="M420 344.8 L540 344.8 L540 404.8 L420 404.8 Z" stroke="none" clip-path="url(#clipPath2)"/>
    </g>
    <g text-rendering="geometricPrecision" stroke-miterlimit="1.45" shape-rendering="geometricPrecision" transform="matrix(1,0,0,1,-37,35)" stroke-linecap="butt">
      <path fill="none" d="M420 344.8 L540 344.8 L540 404.8 L420 404.8 Z" clip-path="url(#clipPath2)"/>
      <text x="436.0283" xml:space="preserve" y="378.9543" clip-path="url(#clipPath2)" font-family="sans-serif" stroke="none">Delete entities</text>
    </g>
    <g fill="url(#linearGradient7)" text-rendering="geometricPrecision" shape-rendering="geometricPrecision" transform="matrix(1,0,0,1,-37,35)" stroke="url(#linearGradient7)">
      <path d="M556.25 442.3 L676.25 442.3 L676.25 502.3 L556.25 502.3 Z" stroke="none" clip-path="url(#clipPath2)"/>
    </g>
    <g text-rendering="geometricPrecision" stroke-miterlimit="1.45" shape-rendering="geometricPrecision" transform="matrix(1,0,0,1,-37,35)" stroke-linecap="butt">
      <path fill="none" d="M556.25 442.3 L676.25 442.3 L676.25 502.3 L556.25 502.3 Z" clip-path="url(#clipPath2)"/>
      <text x="569.0322" xml:space="preserve" y="476.4543" clip-path="url(#clipPath2)" font-family="sans-serif" stroke="none">Delete domains</text>
    </g>
    <g fill="url(#linearGradient8)" text-rendering="geometricPrecision" shape-rendering="geometricPrecision" transform="matrix(1,0,0,1,-37,35)" stroke="url(#linearGradient8)">
      <path d="M556.25 527.3 L676.25 527.3 L676.25 587.3 L556.25 587.3 Z" stroke="none" clip-path="url(#clipPath2)"/>
    </g>
    <g text-rendering="geometricPrecision" stroke-miterlimit="1.45" shape-rendering="geometricPrecision" transform="matrix(1,0,0,1,-37,35)" stroke-linecap="butt">
      <path fill="none" d="M556.25 527.3 L676.25 527.3 L676.25 587.3 L556.25 587.3 Z" clip-path="url(#clipPath2)"/>
      <text x="594.6289" xml:space="preserve" y="554.4699" clip-path="url(#clipPath2)" font-family="sans-serif" stroke="none">Delete </text>
      <text x="578.5068" xml:space="preserve" y="568.4387" clip-path="url(#clipPath2)" font-family="sans-serif" stroke="none">namespaces</text>
    </g>
    <g fill="url(#linearGradient9)" text-rendering="geometricPrecision" shape-rendering="geometricPrecision" transform="matrix(1,0,0,1,-37,35)" stroke="url(#linearGradient9)">
      <path d="M556.25 617.3 L676.25 617.3 L676.25 677.3 L556.25 677.3 Z" stroke="none" clip-path="url(#clipPath2)"/>
    </g>
    <g text-rendering="geometricPrecision" stroke-miterlimit="1.45" shape-rendering="geometricPrecision" transform="matrix(1,0,0,1,-37,35)" stroke-linecap="butt">
      <path fill="none" d="M556.25 617.3 L676.25 617.3 L676.25 677.3 L556.25 677.3 Z" clip-path="url(#clipPath2)"/>
      <text x="575.9463" xml:space="preserve" y="651.4543" clip-path="url(#clipPath2)" font-family="sans-serif" stroke="none">Delete model</text>
    </g>
    <g fill="url(#linearGradient10)" text-rendering="geometricPrecision" shape-rendering="geometricPrecision" transform="matrix(1,0,0,1,-37,35)" stroke="url(#linearGradient10)">
      <path d="M52.5 290 L192.5 290 L212.5 330 L192.5 370 L52.5 370 Z" stroke="none" clip-path="url(#clipPath2)"/>
    </g>
    <g text-rendering="geometricPrecision" stroke-miterlimit="1.45" shape-rendering="geometricPrecision" transform="matrix(1,0,0,1,-37,35)" stroke-linecap="butt">
      <path fill="none" d="M52.5 290 L192.5 290 L212.5 330 L192.5 370 L52.5 370 Z" clip-path="url(#clipPath2)"/>
      <text x="77.7148" xml:space="preserve" y="334.1543" clip-path="url(#clipPath2)" font-family="sans-serif" stroke="none">Model has entities</text>
    </g>
    <g text-rendering="geometricPrecision" stroke-miterlimit="1.45" shape-rendering="geometricPrecision" transform="matrix(1,0,0,1,-37,35)" stroke-linecap="butt">
      <path fill="none" d="M471.7713 20.8976 L471.7713 52" clip-path="url(#clipPath2)"/>
    </g>
    <g text-rendering="geometricPrecision" stroke-miterlimit="1.45" shape-rendering="geometricPrecision" transform="matrix(1,0,0,1,-37,35)" stroke-linecap="butt">
      <path d="M471.7713 60 L476.7713 48 L471.7713 51 L466.7713 48 Z" stroke="none" clip-path="url(#clipPath2)"/>
      <path fill="none" d="M351.7478 120 L290 120 L290 154.8032" clip-path="url(#clipPath2)"/>
      <path d="M290 162.8032 L295 150.8032 L290 153.8032 L285 150.8032 Z" clip-path="url(#clipPath2)" stroke="none"/>
      <text x="318.6814" xml:space="preserve" y="113.1699" clip-path="url(#clipPath2)" font-family="sans-serif" stroke="none">Yes</text>
      <path fill="none" d="M409.9727 222.8032 L467.4787 222.8032 L467.4787 246.7625" clip-path="url(#clipPath2)"/>
      <path d="M467.4787 254.7625 L472.4787 242.7625 L467.4787 245.7625 L462.4787 242.7625 Z" clip-path="url(#clipPath2)" stroke="none"/>
      <text x="422.125" xml:space="preserve" y="215.9731" clip-path="url(#clipPath2)" font-family="sans-serif" stroke="none">Yes</text>
      <path fill="none" d="M480 314.8146 L480 336.778" clip-path="url(#clipPath2)"/>
      <path d="M480 344.778 L485 332.778 L480 335.778 L475 332.778 Z" clip-path="url(#clipPath2)" stroke="none"/>
      <path fill="none" d="M591.7874 120 L628.058 120 L628.058 434.2922" clip-path="url(#clipPath2)"/>
      <path d="M628.058 442.2922 L633.058 430.2922 L628.058 433.2922 L623.058 430.2922 Z" clip-path="url(#clipPath2)" stroke="none"/>
      <text x="603.8963" xml:space="preserve" y="113.1699" clip-path="url(#clipPath2)" font-family="sans-serif" stroke="none">No</text>
      <path fill="none" d="M480 404.8122 L480 422.3 L601.914 422.3 L601.914 434.2707" clip-path="url(#clipPath2)"/>
      <path d="M601.914 442.2707 L606.914 430.2707 L601.914 433.2707 L596.914 430.2707 Z" clip-path="url(#clipPath2)" stroke="none"/>
      <path fill="none" d="M616.25 502.3073 L616.25 519.3065" clip-path="url(#clipPath2)"/>
      <path d="M616.25 527.3065 L621.25 515.3065 L616.25 518.3065 L611.25 515.3065 Z" clip-path="url(#clipPath2)" stroke="none"/>
      <path fill="none" d="M616.25 587.3146 L616.25 609.278" clip-path="url(#clipPath2)"/>
      <path d="M616.25 617.278 L621.25 605.278 L616.25 608.278 L611.25 605.278 Z" clip-path="url(#clipPath2)" stroke="none"/>
      <path fill="none" d="M616.25 677.304 L616.25 697.75 L435.28 697.75 L435.28 722.0236" clip-path="url(#clipPath2)"/>
      <path d="M435.28 730.0236 L440.28 718.0236 L435.28 721.0236 L430.28 718.0236 Z" clip-path="url(#clipPath2)" stroke="none"/>
      <path fill="none" d="M169.9908 222.8032 L132.5 222.8032 L132.5 281.9844" clip-path="url(#clipPath2)"/>
      <path d="M132.5 289.9844 L137.5 277.9844 L132.5 280.9844 L127.5 277.9844 Z" clip-path="url(#clipPath2)" stroke="none"/>
      <text x="141.5566" xml:space="preserve" y="215.9731" clip-path="url(#clipPath2)" font-family="sans-serif" stroke="none">No</text>
      <path fill="none" d="M132.5 369.9902 L132.5 450 L411.04 450 L411.04 721.9683" clip-path="url(#clipPath2)"/>
      <path d="M411.04 729.9683 L416.04 717.9683 L411.04 720.9683 L406.04 717.9683 Z" clip-path="url(#clipPath2)" stroke="none"/>
    </g>
  </g>
</svg>
