<?xml version="1.0" encoding="UTF-8"?><svg xmlns="http://www.w3.org/2000/svg" xmlns:xlink="http://www.w3.org/1999/xlink" fill-opacity="1" color-rendering="auto" color-interpolation="auto" text-rendering="auto" stroke="black" stroke-linecap="square" width="683" stroke-miterlimit="10" shape-rendering="auto" stroke-opacity="1" fill="black" stroke-dasharray="none" font-weight="normal" stroke-width="1" height="657" font-family="'Dialog'" font-style="normal" stroke-linejoin="miter" font-size="12px" stroke-dashoffset="0" image-rendering="auto">
  <!--Generated by ySVG 2.5-->
  <defs id="genericDefs"/>
  <g>
    <defs id="defs1">
      <linearGradient x1="551.6463" gradientUnits="userSpaceOnUse" x2="671.6463" y1="202.2656" y2="262.2656" id="linearGradient1" spreadMethod="reflect">
        <stop stop-opacity="1" stop-color="rgb(232,238,247)" offset="0%"/>
        <stop stop-opacity="1" stop-color="rgb(183,201,227)" offset="100%"/>
      </linearGradient>
      <linearGradient x1="322.4744" gradientUnits="userSpaceOnUse" x2="562.4744" y1="7.2656" y2="127.2656" id="linearGradient2" spreadMethod="reflect">
        <stop stop-opacity="1" stop-color="rgb(232,238,247)" offset="0%"/>
        <stop stop-opacity="1" stop-color="rgb(183,201,227)" offset="100%"/>
      </linearGradient>
      <linearGradient x1="234.8963" gradientUnits="userSpaceOnUse" x2="314.8963" y1="-176.4357" y2="-136.4357" id="linearGradient3" spreadMethod="reflect">
        <stop stop-opacity="1" stop-color="rgb(232,238,247)" offset="0%"/>
        <stop stop-opacity="1" stop-color="rgb(183,201,227)" offset="100%"/>
      </linearGradient>
      <linearGradient x1="245.0469" gradientUnits="userSpaceOnUse" x2="325.0469" y1="409.6125" y2="449.6125" id="linearGradient4" spreadMethod="reflect">
        <stop stop-opacity="1" stop-color="rgb(232,238,247)" offset="0%"/>
        <stop stop-opacity="1" stop-color="rgb(183,201,227)" offset="100%"/>
      </linearGradient>
      <linearGradient x1="225.0469" gradientUnits="userSpaceOnUse" x2="345.0469" y1="112.2656" y2="172.2656" id="linearGradient5" spreadMethod="reflect">
        <stop stop-opacity="1" stop-color="rgb(232,238,247)" offset="0%"/>
        <stop stop-opacity="1" stop-color="rgb(183,201,227)" offset="100%"/>
      </linearGradient>
      <linearGradient x1="225.0469" gradientUnits="userSpaceOnUse" x2="345.0469" y1="292.2656" y2="352.2656" id="linearGradient6" spreadMethod="reflect">
        <stop stop-opacity="1" stop-color="rgb(232,238,247)" offset="0%"/>
        <stop stop-opacity="1" stop-color="rgb(183,201,227)" offset="100%"/>
      </linearGradient>
      <linearGradient x1="225.0469" gradientUnits="userSpaceOnUse" x2="345.0469" y1="202.2656" y2="262.2656" id="linearGradient7" spreadMethod="reflect">
        <stop stop-opacity="1" stop-color="rgb(232,238,247)" offset="0%"/>
        <stop stop-opacity="1" stop-color="rgb(183,201,227)" offset="100%"/>
      </linearGradient>
      <linearGradient x1="154.8963" gradientUnits="userSpaceOnUse" x2="394.8963" y1="-98.2179" y2="21.7821" id="linearGradient8" spreadMethod="reflect">
        <stop stop-opacity="1" stop-color="rgb(232,238,247)" offset="0%"/>
        <stop stop-opacity="1" stop-color="rgb(183,201,227)" offset="100%"/>
      </linearGradient>
      <linearGradient x1="19.4535" gradientUnits="userSpaceOnUse" x2="179.4535" y1="192.2656" y2="272.2656" id="linearGradient9" spreadMethod="reflect">
        <stop stop-opacity="1" stop-color="rgb(232,238,247)" offset="0%"/>
        <stop stop-opacity="1" stop-color="rgb(183,201,227)" offset="100%"/>
      </linearGradient>
      <clipPath clipPathUnits="userSpaceOnUse" id="clipPath1">
        <path d="M0 0 L683 0 L683 657 L0 657 L0 0 Z"/>
      </clipPath>
      <clipPath clipPathUnits="userSpaceOnUse" id="clipPath2">
        <path d="M4 -192 L687 -192 L687 465 L4 465 L4 -192 Z"/>
      </clipPath>
    </defs>
    <g fill="white" text-rendering="geometricPrecision" shape-rendering="geometricPrecision" transform="translate(-4,192)" stroke="white">
      <rect x="4" width="683" height="657" y="-192" clip-path="url(#clipPath2)" stroke="none"/>
    </g>
    <g fill="url(#linearGradient1)" text-rendering="geometricPrecision" shape-rendering="geometricPrecision" transform="matrix(1,0,0,1,-4,192)" stroke="url(#linearGradient1)">
      <path d="M551.6463 202.2656 L671.6463 202.2656 L671.6463 262.2656 L551.6463 262.2656 Z" stroke="none" clip-path="url(#clipPath2)"/>
    </g>
    <g text-rendering="geometricPrecision" stroke-miterlimit="1.45" shape-rendering="geometricPrecision" transform="matrix(1,0,0,1,-4,192)" stroke-linecap="butt">
      <path fill="none" d="M551.6463 202.2656 L671.6463 202.2656 L671.6463 262.2656 L551.6463 262.2656 Z" clip-path="url(#clipPath2)"/>
      <text x="569.327" xml:space="preserve" y="236.4199" clip-path="url(#clipPath2)" font-family="sans-serif" stroke="none">Update model</text>
    </g>
    <g fill="url(#linearGradient2)" text-rendering="geometricPrecision" shape-rendering="geometricPrecision" transform="matrix(1,0,0,1,-4,192)" stroke="url(#linearGradient2)">
      <path d="M442.4744 7.2656 L562.4744 67.2656 L442.4744 127.2656 L322.4744 67.2656 Z" stroke="none" clip-path="url(#clipPath2)"/>
    </g>
    <g text-rendering="geometricPrecision" stroke-miterlimit="1.45" shape-rendering="geometricPrecision" transform="matrix(1,0,0,1,-4,192)" stroke-linecap="butt">
      <path fill="none" d="M442.4744 7.2656 L562.4744 67.2656 L442.4744 127.2656 L322.4744 67.2656 Z" clip-path="url(#clipPath2)"/>
      <text x="392.6609" xml:space="preserve" y="71.4199" clip-path="url(#clipPath2)" font-family="sans-serif" stroke="none">Is model ID null?</text>
    </g>
    <g fill="url(#linearGradient3)" text-rendering="geometricPrecision" shape-rendering="geometricPrecision" transform="matrix(1,0,0,1,-4,192)" stroke="url(#linearGradient3)">
      <circle r="20" clip-path="url(#clipPath2)" cx="274.8963" cy="-156.4357" stroke="none"/>
    </g>
    <g text-rendering="geometricPrecision" stroke-miterlimit="1.45" shape-rendering="geometricPrecision" transform="matrix(1,0,0,1,-4,192)" stroke-linecap="butt">
      <circle fill="none" r="20" clip-path="url(#clipPath2)" cx="274.8963" cy="-156.4357"/>
    </g>
    <g fill="url(#linearGradient4)" text-rendering="geometricPrecision" shape-rendering="geometricPrecision" transform="matrix(1,0,0,1,-4,192)" stroke="url(#linearGradient4)">
      <rect x="245.0469" y="409.6125" clip-path="url(#clipPath2)" width="80" rx="20" ry="20" height="40" stroke="none"/>
    </g>
    <g text-rendering="geometricPrecision" stroke-miterlimit="1.45" shape-rendering="geometricPrecision" transform="matrix(1,0,0,1,-4,192)" stroke-linecap="butt">
      <rect x="245.0469" y="409.6125" clip-path="url(#clipPath2)" fill="none" width="80" rx="20" ry="20" height="40"/>
    </g>
    <g fill="url(#linearGradient5)" text-rendering="geometricPrecision" shape-rendering="geometricPrecision" transform="matrix(1,0,0,1,-4,192)" stroke="url(#linearGradient5)">
      <path d="M225.0469 112.2656 L345.0469 112.2656 L345.0469 172.2656 L225.0469 172.2656 Z" stroke="none" clip-path="url(#clipPath2)"/>
    </g>
    <g text-rendering="geometricPrecision" stroke-miterlimit="1.45" shape-rendering="geometricPrecision" transform="matrix(1,0,0,1,-4,192)" stroke-linecap="butt">
      <path fill="none" d="M225.0469 112.2656 L345.0469 112.2656 L345.0469 172.2656 L225.0469 172.2656 Z" clip-path="url(#clipPath2)"/>
      <text x="244.3887" xml:space="preserve" y="146.4199" clip-path="url(#clipPath2)" font-family="sans-serif" stroke="none">Create model</text>
    </g>
    <g fill="url(#linearGradient6)" text-rendering="geometricPrecision" shape-rendering="geometricPrecision" transform="matrix(1,0,0,1,-4,192)" stroke="url(#linearGradient6)">
      <path d="M225.0469 292.2656 L345.0469 292.2656 L345.0469 352.2656 L225.0469 352.2656 Z" stroke="none" clip-path="url(#clipPath2)"/>
    </g>
    <g text-rendering="geometricPrecision" stroke-miterlimit="1.45" shape-rendering="geometricPrecision" transform="matrix(1,0,0,1,-4,192)" stroke-linecap="butt">
      <path fill="none" d="M225.0469 292.2656 L345.0469 292.2656 L345.0469 352.2656 L225.0469 352.2656 Z" clip-path="url(#clipPath2)"/>
      <text x="244.9014" xml:space="preserve" y="319.4355" clip-path="url(#clipPath2)" font-family="sans-serif" stroke="none">Copy default </text>
      <text x="259.4502" xml:space="preserve" y="333.4043" clip-path="url(#clipPath2)" font-family="sans-serif" stroke="none">domains</text>
    </g>
    <g fill="url(#linearGradient7)" text-rendering="geometricPrecision" shape-rendering="geometricPrecision" transform="matrix(1,0,0,1,-4,192)" stroke="url(#linearGradient7)">
      <path d="M225.0469 202.2656 L345.0469 202.2656 L345.0469 262.2656 L225.0469 262.2656 Z" stroke="none" clip-path="url(#clipPath2)"/>
    </g>
    <g text-rendering="geometricPrecision" stroke-miterlimit="1.45" shape-rendering="geometricPrecision" transform="matrix(1,0,0,1,-4,192)" stroke-linecap="butt">
      <path fill="none" d="M225.0469 202.2656 L345.0469 202.2656 L345.0469 262.2656 L225.0469 262.2656 Z" clip-path="url(#clipPath2)"/>
      <text x="240.0527" xml:space="preserve" y="229.4355" clip-path="url(#clipPath2)" font-family="sans-serif" stroke="none">Create default </text>
      <text x="250.4297" xml:space="preserve" y="243.4043" clip-path="url(#clipPath2)" font-family="sans-serif" stroke="none">namespace</text>
    </g>
    <g fill="url(#linearGradient8)" text-rendering="geometricPrecision" shape-rendering="geometricPrecision" transform="matrix(1,0,0,1,-4,192)" stroke="url(#linearGradient8)">
      <path d="M274.8963 -98.2179 L394.8963 -38.2179 L274.8963 21.7821 L154.8963 -38.2179 Z" stroke="none" clip-path="url(#clipPath2)"/>
    </g>
    <g text-rendering="geometricPrecision" stroke-miterlimit="1.45" shape-rendering="geometricPrecision" transform="matrix(1,0,0,1,-4,192)" stroke-linecap="butt">
      <path fill="none" d="M274.8963 -98.2179 L394.8963 -38.2179 L274.8963 21.7821 L154.8963 -38.2179 Z" clip-path="url(#clipPath2)"/>
      <text x="200.8719" xml:space="preserve" y="-41.0479" clip-path="url(#clipPath2)" font-family="sans-serif" stroke="none">Does new name conflict </text>
      <text x="207.5633" xml:space="preserve" y="-27.0792" clip-path="url(#clipPath2)" font-family="sans-serif" stroke="none">with any other model?</text>
    </g>
    <g fill="url(#linearGradient9)" text-rendering="geometricPrecision" shape-rendering="geometricPrecision" transform="matrix(1,0,0,1,-4,192)" stroke="url(#linearGradient9)">
      <path d="M19.4535 192.2656 L159.4535 192.2656 L179.4535 232.2656 L159.4535 272.2656 L19.4535 272.2656 Z" stroke="none" clip-path="url(#clipPath2)"/>
    </g>
    <g text-rendering="geometricPrecision" stroke-miterlimit="1.45" shape-rendering="geometricPrecision" transform="matrix(1,0,0,1,-4,192)" stroke-linecap="butt">
      <path fill="none" d="M19.4535 192.2656 L159.4535 192.2656 L179.4535 232.2656 L159.4535 272.2656 L19.4535 272.2656 Z" clip-path="url(#clipPath2)"/>
      <text x="59.39" xml:space="preserve" y="229.4355" clip-path="url(#clipPath2)" font-family="sans-serif" stroke="none">Model names</text>
      <text x="52.4379" xml:space="preserve" y="243.4043" clip-path="url(#clipPath2)" font-family="sans-serif" stroke="none">must be unique</text>
    </g>
    <g text-rendering="geometricPrecision" stroke-miterlimit="1.45" shape-rendering="geometricPrecision" transform="matrix(1,0,0,1,-4,192)" stroke-linecap="butt">
      <path fill="none" d="M562.4549 67.2656 L614.431 67.2656 L614.431 194.2555" clip-path="url(#clipPath2)"/>
    </g>
    <g text-rendering="geometricPrecision" stroke-miterlimit="1.45" shape-rendering="geometricPrecision" transform="matrix(1,0,0,1,-4,192)" stroke-linecap="butt">
      <path d="M614.431 202.2555 L619.431 190.2555 L614.431 193.2555 L609.431 190.2555 Z" stroke="none" clip-path="url(#clipPath2)"/>
      <text x="574.5994" xml:space="preserve" y="60.4355" clip-path="url(#clipPath2)" font-family="sans-serif" stroke="none">No</text>
      <path fill="none" d="M611.6463 262.2675 L611.6463 389.6125 L304.2717 389.6125 L304.2717 401.6547" clip-path="url(#clipPath2)"/>
      <path d="M304.2717 409.6547 L309.2717 397.6547 L304.2717 400.6547 L299.2717 397.6547 Z" clip-path="url(#clipPath2)" stroke="none"/>
      <path fill="none" d="M322.4861 67.2656 L285.0469 67.2656 L285.0469 104.2607" clip-path="url(#clipPath2)"/>
      <path d="M285.0469 112.2607 L290.0469 100.2607 L285.0469 103.2607 L280.0469 100.2607 Z" clip-path="url(#clipPath2)" stroke="none"/>
      <text x="289.3846" xml:space="preserve" y="60.4355" clip-path="url(#clipPath2)" font-family="sans-serif" stroke="none">Yes</text>
      <path fill="none" d="M285.0469 352.2656 L285.0469 401.5975" clip-path="url(#clipPath2)"/>
      <path d="M285.0469 409.5975 L290.0469 397.5975 L285.0469 400.5975 L280.0469 397.5975 Z" clip-path="url(#clipPath2)" stroke="none"/>
      <path fill="none" d="M285.0469 172.2803 L285.0469 194.2437" clip-path="url(#clipPath2)"/>
      <path d="M285.0469 202.2437 L290.0469 190.2437 L285.0469 193.2437 L280.0469 190.2437 Z" clip-path="url(#clipPath2)" stroke="none"/>
      <path fill="none" d="M285.0469 262.2803 L285.0469 284.2437" clip-path="url(#clipPath2)"/>
      <path d="M285.0469 292.2437 L290.0469 280.2437 L285.0469 283.2437 L280.0469 280.2437 Z" clip-path="url(#clipPath2)" stroke="none"/>
      <path fill="none" d="M274.8963 -136.4357 L274.8963 -106.2008" clip-path="url(#clipPath2)"/>
      <path d="M274.8963 -98.2008 L279.8963 -110.2008 L274.8963 -107.2008 L269.8963 -110.2008 Z" clip-path="url(#clipPath2)" stroke="none"/>
      <path fill="none" d="M394.893 -38.2179 L442.4744 -38.2179 L442.4744 -0.7127" clip-path="url(#clipPath2)"/>
      <path d="M442.4744 7.2873 L447.4744 -4.7127 L442.4744 -1.7127 L437.4744 -4.7127 Z" clip-path="url(#clipPath2)" stroke="none"/>
      <text x="407.0213" xml:space="preserve" y="-45.0479" clip-path="url(#clipPath2)" font-family="sans-serif" stroke="none">No</text>
      <path fill="none" d="M154.9219 -38.2179 L99.4535 -38.2179 L99.4535 184.2808" clip-path="url(#clipPath2)"/>
      <path d="M99.4535 192.2808 L104.4535 180.2808 L99.4535 183.2808 L94.4535 180.2808 Z" clip-path="url(#clipPath2)" stroke="none"/>
      <text x="121.8064" xml:space="preserve" y="-45.0479" clip-path="url(#clipPath2)" font-family="sans-serif" stroke="none">Yes</text>
      <path fill="none" d="M99.4535 272.2486 L99.4535 384.61 L265.0469 384.61 L265.0469 401.5938" clip-path="url(#clipPath2)"/>
      <path d="M265.0469 409.5938 L270.0469 397.5938 L265.0469 400.5938 L260.0469 397.5938 Z" clip-path="url(#clipPath2)" stroke="none"/>
    </g>
  </g>
</svg>
