<?xml version="1.0" encoding="UTF-8"?><svg xmlns="http://www.w3.org/2000/svg" xmlns:xlink="http://www.w3.org/1999/xlink" fill-opacity="1" color-rendering="auto" color-interpolation="auto" text-rendering="auto" stroke="black" stroke-linecap="square" width="698" stroke-miterlimit="10" shape-rendering="auto" stroke-opacity="1" fill="black" stroke-dasharray="none" font-weight="normal" stroke-width="1" height="593" font-family="'Dialog'" font-style="normal" stroke-linejoin="miter" font-size="12px" stroke-dashoffset="0" image-rendering="auto">
  <!--Generated by ySVG 2.5-->
  <defs id="genericDefs"/>
  <g>
    <defs id="defs1">
      <linearGradient x1="431.7713" gradientUnits="userSpaceOnUse" x2="511.7713" y1="-19.1024" y2="20.8976" id="linearGradient1" spreadMethod="reflect">
        <stop stop-opacity="1" stop-color="rgb(232,238,247)" offset="0%"/>
        <stop stop-opacity="1" stop-color="rgb(183,201,227)" offset="100%"/>
      </linearGradient>
      <linearGradient x1="418.6702" gradientUnits="userSpaceOnUse" x2="498.6702" y1="502.9977" y2="542.9977" id="linearGradient2" spreadMethod="reflect">
        <stop stop-opacity="1" stop-color="rgb(232,238,247)" offset="0%"/>
        <stop stop-opacity="1" stop-color="rgb(183,201,227)" offset="100%"/>
      </linearGradient>
      <linearGradient x1="351.7713" gradientUnits="userSpaceOnUse" x2="591.7713" y1="75.3291" y2="195.3291" id="linearGradient3" spreadMethod="reflect">
        <stop stop-opacity="1" stop-color="rgb(232,238,247)" offset="0%"/>
        <stop stop-opacity="1" stop-color="rgb(183,201,227)" offset="100%"/>
      </linearGradient>
      <linearGradient x1="71.1326" gradientUnits="userSpaceOnUse" x2="191.1326" y1="341.7128" y2="401.7128" id="linearGradient4" spreadMethod="reflect">
        <stop stop-opacity="1" stop-color="rgb(232,238,247)" offset="0%"/>
        <stop stop-opacity="1" stop-color="rgb(183,201,227)" offset="100%"/>
      </linearGradient>
      <linearGradient x1="578.7726" gradientUnits="userSpaceOnUse" x2="738.7726" y1="331.7128" y2="411.7128" id="linearGradient5" spreadMethod="reflect">
        <stop stop-opacity="1" stop-color="rgb(232,238,247)" offset="0%"/>
        <stop stop-opacity="1" stop-color="rgb(183,201,227)" offset="100%"/>
      </linearGradient>
      <linearGradient x1="166.2926" gradientUnits="userSpaceOnUse" x2="406.2925" y1="169.4082" y2="289.4082" id="linearGradient6" spreadMethod="reflect">
        <stop stop-opacity="1" stop-color="rgb(232,238,247)" offset="0%"/>
        <stop stop-opacity="1" stop-color="rgb(183,201,227)" offset="100%"/>
      </linearGradient>
      <linearGradient x1="378.6702" gradientUnits="userSpaceOnUse" x2="538.6702" y1="331.7128" y2="411.7128" id="linearGradient7" spreadMethod="reflect">
        <stop stop-opacity="1" stop-color="rgb(232,238,247)" offset="0%"/>
        <stop stop-opacity="1" stop-color="rgb(183,201,227)" offset="100%"/>
      </linearGradient>
      <clipPath clipPathUnits="userSpaceOnUse" id="clipPath1">
        <path d="M0 0 L698 0 L698 593 L0 593 L0 0 Z"/>
      </clipPath>
      <clipPath clipPathUnits="userSpaceOnUse" id="clipPath2">
        <path d="M56 -35 L754 -35 L754 558 L56 558 L56 -35 Z"/>
      </clipPath>
    </defs>
    <g fill="white" text-rendering="geometricPrecision" shape-rendering="geometricPrecision" transform="translate(-56,35)" stroke="white">
      <rect x="56" width="698" height="593" y="-35" clip-path="url(#clipPath2)" stroke="none"/>
    </g>
    <g fill="url(#linearGradient1)" text-rendering="geometricPrecision" shape-rendering="geometricPrecision" transform="matrix(1,0,0,1,-56,35)" stroke="url(#linearGradient1)">
      <circle r="20" clip-path="url(#clipPath2)" cx="471.7713" cy="0.8976" stroke="none"/>
    </g>
    <g text-rendering="geometricPrecision" stroke-miterlimit="1.45" shape-rendering="geometricPrecision" transform="matrix(1,0,0,1,-56,35)" stroke-linecap="butt">
      <circle fill="none" r="20" clip-path="url(#clipPath2)" cx="471.7713" cy="0.8976"/>
    </g>
    <g fill="url(#linearGradient2)" text-rendering="geometricPrecision" shape-rendering="geometricPrecision" transform="matrix(1,0,0,1,-56,35)" stroke="url(#linearGradient2)">
      <rect x="418.6702" y="502.9977" clip-path="url(#clipPath2)" width="80" rx="20" ry="20" height="40" stroke="none"/>
    </g>
    <g text-rendering="geometricPrecision" stroke-miterlimit="1.45" shape-rendering="geometricPrecision" transform="matrix(1,0,0,1,-56,35)" stroke-linecap="butt">
      <rect x="418.6702" y="502.9977" clip-path="url(#clipPath2)" fill="none" width="80" rx="20" ry="20" height="40"/>
    </g>
    <g fill="url(#linearGradient3)" text-rendering="geometricPrecision" shape-rendering="geometricPrecision" transform="matrix(1,0,0,1,-56,35)" stroke="url(#linearGradient3)">
      <path d="M471.7713 75.3291 L591.7713 135.3291 L471.7713 195.3291 L351.7713 135.3291 Z" stroke="none" clip-path="url(#clipPath2)"/>
    </g>
    <g text-rendering="geometricPrecision" stroke-miterlimit="1.45" shape-rendering="geometricPrecision" transform="matrix(1,0,0,1,-56,35)" stroke-linecap="butt">
      <path fill="none" d="M471.7713 75.3291 L591.7713 135.3291 L471.7713 195.3291 L351.7713 135.3291 Z" clip-path="url(#clipPath2)"/>
      <text x="428.4441" xml:space="preserve" y="125.5147" clip-path="url(#clipPath2)" font-family="sans-serif" stroke="none">Is namespace </text>
      <text x="427.8758" xml:space="preserve" y="139.4834" clip-path="url(#clipPath2)" font-family="sans-serif" stroke="none">referenced by </text>
      <text x="433.2986" xml:space="preserve" y="153.4522" clip-path="url(#clipPath2)" font-family="sans-serif" stroke="none">any entities?</text>
    </g>
    <g fill="url(#linearGradient4)" text-rendering="geometricPrecision" shape-rendering="geometricPrecision" transform="matrix(1,0,0,1,-56,35)" stroke="url(#linearGradient4)">
      <path d="M71.1326 341.7128 L191.1326 341.7128 L191.1326 401.7128 L71.1326 401.7128 Z" stroke="none" clip-path="url(#clipPath2)"/>
    </g>
    <g text-rendering="geometricPrecision" stroke-miterlimit="1.45" shape-rendering="geometricPrecision" transform="matrix(1,0,0,1,-56,35)" stroke-linecap="butt">
      <path fill="none" d="M71.1326 341.7128 L191.1326 341.7128 L191.1326 401.7128 L71.1326 401.7128 Z" clip-path="url(#clipPath2)"/>
      <text x="111.4187" xml:space="preserve" y="368.8827" clip-path="url(#clipPath2)" font-family="sans-serif" stroke="none">Delete</text>
      <text x="96.5154" xml:space="preserve" y="382.8514" clip-path="url(#clipPath2)" font-family="sans-serif" stroke="none">namespace</text>
    </g>
    <g fill="url(#linearGradient5)" text-rendering="geometricPrecision" shape-rendering="geometricPrecision" transform="matrix(1,0,0,1,-56,35)" stroke="url(#linearGradient5)">
      <path d="M578.7726 331.7128 L718.7726 331.7128 L738.7726 371.7128 L718.7726 411.7128 L578.7726 411.7128 Z" stroke="none" clip-path="url(#clipPath2)"/>
    </g>
    <g text-rendering="geometricPrecision" stroke-miterlimit="1.45" shape-rendering="geometricPrecision" transform="matrix(1,0,0,1,-56,35)" stroke-linecap="butt">
      <path fill="none" d="M578.7726 331.7128 L718.7726 331.7128 L738.7726 371.7128 L718.7726 411.7128 L578.7726 411.7128 Z" clip-path="url(#clipPath2)"/>
      <text x="616.7697" xml:space="preserve" y="361.8983" clip-path="url(#clipPath2)" font-family="sans-serif" stroke="none">Namespace is</text>
      <text x="614.8771" xml:space="preserve" y="375.8671" clip-path="url(#clipPath2)" font-family="sans-serif" stroke="none">referenced by </text>
      <text x="636.422" xml:space="preserve" y="389.8358" clip-path="url(#clipPath2)" font-family="sans-serif" stroke="none">entities</text>
    </g>
    <g fill="url(#linearGradient6)" text-rendering="geometricPrecision" shape-rendering="geometricPrecision" transform="matrix(1,0,0,1,-56,35)" stroke="url(#linearGradient6)">
      <path d="M286.2925 169.4082 L406.2925 229.4082 L286.2925 289.4082 L166.2926 229.4082 Z" stroke="none" clip-path="url(#clipPath2)"/>
    </g>
    <g text-rendering="geometricPrecision" stroke-miterlimit="1.45" shape-rendering="geometricPrecision" transform="matrix(1,0,0,1,-56,35)" stroke-linecap="butt">
      <path fill="none" d="M286.2925 169.4082 L406.2925 229.4082 L286.2925 289.4082 L166.2926 229.4082 Z" clip-path="url(#clipPath2)"/>
      <text x="258.3785" xml:space="preserve" y="226.5782" clip-path="url(#clipPath2)" font-family="sans-serif" stroke="none">Is default</text>
      <text x="248.4908" xml:space="preserve" y="240.5469" clip-path="url(#clipPath2)" font-family="sans-serif" stroke="none">namespace?</text>
    </g>
    <g fill="url(#linearGradient7)" text-rendering="geometricPrecision" shape-rendering="geometricPrecision" transform="matrix(1,0,0,1,-56,35)" stroke="url(#linearGradient7)">
      <path d="M378.6702 331.7128 L518.6702 331.7128 L538.6702 371.7128 L518.6702 411.7128 L378.6702 411.7128 Z" stroke="none" clip-path="url(#clipPath2)"/>
    </g>
    <g text-rendering="geometricPrecision" stroke-miterlimit="1.45" shape-rendering="geometricPrecision" transform="matrix(1,0,0,1,-56,35)" stroke-linecap="butt">
      <path fill="none" d="M378.6702 331.7128 L518.6702 331.7128 L538.6702 371.7128 L518.6702 411.7128 L378.6702 411.7128 Z" clip-path="url(#clipPath2)"/>
      <text x="416.3655" xml:space="preserve" y="368.8827" clip-path="url(#clipPath2)" font-family="sans-serif" stroke="none">Cannot delete</text>
      <text x="401.0345" xml:space="preserve" y="382.8514" clip-path="url(#clipPath2)" font-family="sans-serif" stroke="none">default namespace</text>
    </g>
    <g text-rendering="geometricPrecision" stroke-miterlimit="1.45" shape-rendering="geometricPrecision" transform="matrix(1,0,0,1,-56,35)" stroke-linecap="butt">
      <path fill="none" d="M471.7713 20.8851 L471.7713 67.341" clip-path="url(#clipPath2)"/>
    </g>
    <g text-rendering="geometricPrecision" stroke-miterlimit="1.45" shape-rendering="geometricPrecision" transform="matrix(1,0,0,1,-56,35)" stroke-linecap="butt">
      <path d="M471.7713 75.341 L476.7713 63.341 L471.7713 66.341 L466.7713 63.341 Z" stroke="none" clip-path="url(#clipPath2)"/>
      <path fill="none" d="M131.1326 401.7017 L131.1326 455.0469 L438.6702 455.0469 L438.6702 495.0168" clip-path="url(#clipPath2)"/>
      <path d="M438.6702 503.0168 L443.6702 491.0168 L438.6702 494.0168 L433.6702 491.0168 Z" clip-path="url(#clipPath2)" stroke="none"/>
      <path fill="none" d="M591.7973 135.3291 L658.7726 135.3291 L658.7726 323.6903" clip-path="url(#clipPath2)"/>
      <path d="M658.7726 331.6903 L663.7726 319.6903 L658.7726 322.6903 L653.7726 319.6903 Z" clip-path="url(#clipPath2)" stroke="none"/>
      <text x="603.8963" xml:space="preserve" y="128.499" clip-path="url(#clipPath2)" font-family="sans-serif" stroke="none">Yes</text>
      <path fill="none" d="M658.7726 411.7115 L658.7726 455.0469 L478.6382 455.0469 L478.6382 494.9907" clip-path="url(#clipPath2)"/>
      <path d="M478.6382 502.9907 L483.6382 490.9907 L478.6382 493.9907 L473.6382 490.9907 Z" clip-path="url(#clipPath2)" stroke="none"/>
      <path fill="none" d="M351.7263 135.3291 L286.2925 135.3291 L286.2925 161.3685" clip-path="url(#clipPath2)"/>
      <path d="M286.2925 169.3685 L291.2925 157.3685 L286.2925 160.3685 L281.2925 157.3685 Z" clip-path="url(#clipPath2)" stroke="none"/>
      <text x="323.3279" xml:space="preserve" y="128.499" clip-path="url(#clipPath2)" font-family="sans-serif" stroke="none">No</text>
      <path fill="none" d="M166.3239 229.4082 L131.1326 229.4082 L131.1326 333.7302" clip-path="url(#clipPath2)"/>
      <path d="M131.1326 341.7302 L136.1326 329.7302 L131.1326 332.7302 L126.1326 329.7302 Z" clip-path="url(#clipPath2)" stroke="none"/>
      <text x="137.8492" xml:space="preserve" y="222.5782" clip-path="url(#clipPath2)" font-family="sans-serif" stroke="none">No</text>
      <path fill="none" d="M406.2751 229.4082 L458.6702 229.4082 L458.6702 323.7244" clip-path="url(#clipPath2)"/>
      <path d="M458.6702 331.7244 L463.6702 319.7244 L458.6702 322.7244 L453.6702 319.7244 Z" clip-path="url(#clipPath2)" stroke="none"/>
      <text x="418.4175" xml:space="preserve" y="222.5782" clip-path="url(#clipPath2)" font-family="sans-serif" stroke="none">Yes</text>
      <path fill="none" d="M458.6702 411.7131 L458.6702 494.9741" clip-path="url(#clipPath2)"/>
      <path d="M458.6702 502.9741 L463.6702 490.9741 L458.6702 493.9741 L453.6702 490.9741 Z" clip-path="url(#clipPath2)" stroke="none"/>
    </g>
  </g>
</svg>
