<?xml version="1.0" encoding="UTF-8"?><svg xmlns="http://www.w3.org/2000/svg" xmlns:xlink="http://www.w3.org/1999/xlink" fill-opacity="1" color-rendering="auto" color-interpolation="auto" text-rendering="auto" stroke="black" stroke-linecap="square" width="705" stroke-miterlimit="10" shape-rendering="auto" stroke-opacity="1" fill="black" stroke-dasharray="none" font-weight="normal" stroke-width="1" height="527" font-family="'Dialog'" font-style="normal" stroke-linejoin="miter" font-size="12px" stroke-dashoffset="0" image-rendering="auto">
  <!--Generated by ySVG 2.5-->
  <defs id="genericDefs"/>
  <g>
    <defs id="defs1">
      <linearGradient x1="763.2925" gradientUnits="userSpaceOnUse" x2="883.2925" y1="175" y2="235" id="linearGradient1" spreadMethod="reflect">
        <stop stop-opacity="1" stop-color="rgb(232,238,247)" offset="0%"/>
        <stop stop-opacity="1" stop-color="rgb(183,201,227)" offset="100%"/>
      </linearGradient>
      <linearGradient x1="535.7713" gradientUnits="userSpaceOnUse" x2="775.7713" y1="25" y2="145" id="linearGradient2" spreadMethod="reflect">
        <stop stop-opacity="1" stop-color="rgb(232,238,247)" offset="0%"/>
        <stop stop-opacity="1" stop-color="rgb(183,201,227)" offset="100%"/>
      </linearGradient>
      <linearGradient x1="440.2607" gradientUnits="userSpaceOnUse" x2="520.2606" y1="-145.1024" y2="-105.1024" id="linearGradient3" spreadMethod="reflect">
        <stop stop-opacity="1" stop-color="rgb(232,238,247)" offset="0%"/>
        <stop stop-opacity="1" stop-color="rgb(183,201,227)" offset="100%"/>
      </linearGradient>
      <linearGradient x1="440.2607" gradientUnits="userSpaceOnUse" x2="520.2606" y1="310.991" y2="350.991" id="linearGradient4" spreadMethod="reflect">
        <stop stop-opacity="1" stop-color="rgb(232,238,247)" offset="0%"/>
        <stop stop-opacity="1" stop-color="rgb(183,201,227)" offset="100%"/>
      </linearGradient>
      <linearGradient x1="420.2607" gradientUnits="userSpaceOnUse" x2="540.2606" y1="175" y2="235" id="linearGradient5" spreadMethod="reflect">
        <stop stop-opacity="1" stop-color="rgb(232,238,247)" offset="0%"/>
        <stop stop-opacity="1" stop-color="rgb(183,201,227)" offset="100%"/>
      </linearGradient>
      <linearGradient x1="209.89" gradientUnits="userSpaceOnUse" x2="369.89" y1="165" y2="245" id="linearGradient6" spreadMethod="reflect">
        <stop stop-opacity="1" stop-color="rgb(232,238,247)" offset="0%"/>
        <stop stop-opacity="1" stop-color="rgb(183,201,227)" offset="100%"/>
      </linearGradient>
      <linearGradient x1="360.2607" gradientUnits="userSpaceOnUse" x2="600.2606" y1="-75.1024" y2="44.8976" id="linearGradient7" spreadMethod="reflect">
        <stop stop-opacity="1" stop-color="rgb(232,238,247)" offset="0%"/>
        <stop stop-opacity="1" stop-color="rgb(183,201,227)" offset="100%"/>
      </linearGradient>
      <clipPath clipPathUnits="userSpaceOnUse" id="clipPath1">
        <path d="M0 0 L705 0 L705 527 L0 527 L0 0 Z"/>
      </clipPath>
      <clipPath clipPathUnits="userSpaceOnUse" id="clipPath2">
        <path d="M194 -161 L899 -161 L899 366 L194 366 L194 -161 Z"/>
      </clipPath>
    </defs>
    <g fill="white" text-rendering="geometricPrecision" shape-rendering="geometricPrecision" transform="translate(-194,161)" stroke="white">
      <rect x="194" width="705" height="527" y="-161" clip-path="url(#clipPath2)" stroke="none"/>
    </g>
    <g fill="url(#linearGradient1)" text-rendering="geometricPrecision" shape-rendering="geometricPrecision" transform="matrix(1,0,0,1,-194,161)" stroke="url(#linearGradient1)">
      <path d="M763.2925 175 L883.2925 175 L883.2925 235 L763.2925 235 Z" stroke="none" clip-path="url(#clipPath2)"/>
    </g>
    <g text-rendering="geometricPrecision" stroke-miterlimit="1.45" shape-rendering="geometricPrecision" transform="matrix(1,0,0,1,-194,161)" stroke-linecap="butt">
      <path fill="none" d="M763.2925 175 L883.2925 175 L883.2925 235 L763.2925 235 Z" clip-path="url(#clipPath2)"/>
      <text x="799.6558" xml:space="preserve" y="202.1699" clip-path="url(#clipPath2)" font-family="sans-serif" stroke="none">Update </text>
      <text x="788.6754" xml:space="preserve" y="216.1387" clip-path="url(#clipPath2)" font-family="sans-serif" stroke="none">namespace</text>
    </g>
    <g fill="url(#linearGradient2)" text-rendering="geometricPrecision" shape-rendering="geometricPrecision" transform="matrix(1,0,0,1,-194,161)" stroke="url(#linearGradient2)">
      <path d="M655.7713 25 L775.7713 85 L655.7713 145 L535.7713 85 Z" stroke="none" clip-path="url(#clipPath2)"/>
    </g>
    <g text-rendering="geometricPrecision" stroke-miterlimit="1.45" shape-rendering="geometricPrecision" transform="matrix(1,0,0,1,-194,161)" stroke-linecap="butt">
      <path fill="none" d="M655.7713 25 L775.7713 85 L655.7713 145 L535.7713 85 Z" clip-path="url(#clipPath2)"/>
      <text x="590.0233" xml:space="preserve" y="89.1543" clip-path="url(#clipPath2)" font-family="sans-serif" stroke="none">Is namespace ID null?</text>
    </g>
    <g fill="url(#linearGradient3)" text-rendering="geometricPrecision" shape-rendering="geometricPrecision" transform="matrix(1,0,0,1,-194,161)" stroke="url(#linearGradient3)">
      <circle r="20" clip-path="url(#clipPath2)" cx="480.2606" cy="-125.1024" stroke="none"/>
    </g>
    <g text-rendering="geometricPrecision" stroke-miterlimit="1.45" shape-rendering="geometricPrecision" transform="matrix(1,0,0,1,-194,161)" stroke-linecap="butt">
      <circle fill="none" r="20" clip-path="url(#clipPath2)" cx="480.2606" cy="-125.1024"/>
    </g>
    <g fill="url(#linearGradient4)" text-rendering="geometricPrecision" shape-rendering="geometricPrecision" transform="matrix(1,0,0,1,-194,161)" stroke="url(#linearGradient4)">
      <rect x="440.2606" y="310.991" clip-path="url(#clipPath2)" width="80" rx="20" ry="20" height="40" stroke="none"/>
    </g>
    <g text-rendering="geometricPrecision" stroke-miterlimit="1.45" shape-rendering="geometricPrecision" transform="matrix(1,0,0,1,-194,161)" stroke-linecap="butt">
      <rect x="440.2606" y="310.991" clip-path="url(#clipPath2)" fill="none" width="80" rx="20" ry="20" height="40"/>
    </g>
    <g fill="url(#linearGradient5)" text-rendering="geometricPrecision" shape-rendering="geometricPrecision" transform="matrix(1,0,0,1,-194,161)" stroke="url(#linearGradient5)">
      <path d="M420.2607 175 L540.2606 175 L540.2606 235 L420.2607 235 Z" stroke="none" clip-path="url(#clipPath2)"/>
    </g>
    <g text-rendering="geometricPrecision" stroke-miterlimit="1.45" shape-rendering="geometricPrecision" transform="matrix(1,0,0,1,-194,161)" stroke-linecap="butt">
      <path fill="none" d="M420.2607 175 L540.2606 175 L540.2606 235 L420.2607 235 Z" clip-path="url(#clipPath2)"/>
      <text x="458.2851" xml:space="preserve" y="202.1699" clip-path="url(#clipPath2)" font-family="sans-serif" stroke="none">Create </text>
      <text x="445.6435" xml:space="preserve" y="216.1387" clip-path="url(#clipPath2)" font-family="sans-serif" stroke="none">namespace</text>
    </g>
    <g fill="url(#linearGradient6)" text-rendering="geometricPrecision" shape-rendering="geometricPrecision" transform="matrix(1,0,0,1,-194,161)" stroke="url(#linearGradient6)">
      <path d="M209.89 165 L349.89 165 L369.89 205 L349.89 245 L209.89 245 Z" stroke="none" clip-path="url(#clipPath2)"/>
    </g>
    <g text-rendering="geometricPrecision" stroke-miterlimit="1.45" shape-rendering="geometricPrecision" transform="matrix(1,0,0,1,-194,161)" stroke-linecap="butt">
      <path fill="none" d="M209.89 165 L349.89 165 L369.89 205 L349.89 245 L209.89 245 Z" clip-path="url(#clipPath2)"/>
      <text x="232.5384" xml:space="preserve" y="202.1699" clip-path="url(#clipPath2)" font-family="sans-serif" stroke="none">Namespace names</text>
      <text x="242.8744" xml:space="preserve" y="216.1387" clip-path="url(#clipPath2)" font-family="sans-serif" stroke="none">must be unique</text>
    </g>
    <g fill="url(#linearGradient7)" text-rendering="geometricPrecision" shape-rendering="geometricPrecision" transform="matrix(1,0,0,1,-194,161)" stroke="url(#linearGradient7)">
      <path d="M480.2607 -75.1024 L600.2606 -15.1024 L480.2607 44.8976 L360.2607 -15.1024 Z" stroke="none" clip-path="url(#clipPath2)"/>
    </g>
    <g text-rendering="geometricPrecision" stroke-miterlimit="1.45" shape-rendering="geometricPrecision" transform="matrix(1,0,0,1,-194,161)" stroke-linecap="butt">
      <path fill="none" d="M480.2607 -75.1024 L600.2606 -15.1024 L480.2607 44.8976 L360.2607 -15.1024 Z" clip-path="url(#clipPath2)"/>
      <text x="406.2362" xml:space="preserve" y="-17.9325" clip-path="url(#clipPath2)" font-family="sans-serif" stroke="none">Does new name conflict </text>
      <text x="396.9931" xml:space="preserve" y="-3.9637" clip-path="url(#clipPath2)" font-family="sans-serif" stroke="none">with any other namespace?</text>
    </g>
    <g text-rendering="geometricPrecision" stroke-miterlimit="1.45" shape-rendering="geometricPrecision" transform="matrix(1,0,0,1,-194,161)" stroke-linecap="butt">
      <path fill="none" d="M775.741 85 L824 85 L824 166.9908" clip-path="url(#clipPath2)"/>
    </g>
    <g text-rendering="geometricPrecision" stroke-miterlimit="1.45" shape-rendering="geometricPrecision" transform="matrix(1,0,0,1,-194,161)" stroke-linecap="butt">
      <path d="M824 174.9908 L829 162.9908 L824 165.9908 L819 162.9908 Z" stroke="none" clip-path="url(#clipPath2)"/>
      <text x="787.8963" xml:space="preserve" y="78.1699" clip-path="url(#clipPath2)" font-family="sans-serif" stroke="none">No</text>
      <path fill="none" d="M823.2925 234.9922 L823.2925 273.6302 L500.2607 273.6302 L500.2607 303.0053" clip-path="url(#clipPath2)"/>
      <path d="M500.2607 311.0053 L505.2607 299.0053 L500.2607 302.0053 L495.2607 299.0053 Z" clip-path="url(#clipPath2)" stroke="none"/>
      <path fill="none" d="M535.7504 85 L480.2607 85 L480.2607 166.9707" clip-path="url(#clipPath2)"/>
      <path d="M480.2607 174.9707 L485.2607 162.9707 L480.2607 165.9707 L475.2607 162.9707 Z" clip-path="url(#clipPath2)" stroke="none"/>
      <text x="502.6814" xml:space="preserve" y="78.1699" clip-path="url(#clipPath2)" font-family="sans-serif" stroke="none">Yes</text>
      <path fill="none" d="M480.2607 234.9905 L480.2607 302.9753" clip-path="url(#clipPath2)"/>
      <path d="M480.2607 310.9753 L485.2607 298.9753 L480.2607 301.9753 L475.2607 298.9753 Z" clip-path="url(#clipPath2)" stroke="none"/>
      <path fill="none" d="M289.89 244.9785 L289.89 273.6302 L460.2607 273.6302 L460.2607 302.9711" clip-path="url(#clipPath2)"/>
      <path d="M460.2607 310.9711 L465.2607 298.9711 L460.2607 301.9711 L455.2607 298.9711 Z" clip-path="url(#clipPath2)" stroke="none"/>
      <path fill="none" d="M480.2607 -105.1024 L480.2607 -83.0704" clip-path="url(#clipPath2)"/>
      <path d="M480.2607 -75.0704 L485.2607 -87.0704 L480.2607 -84.0704 L475.2607 -87.0704 Z" clip-path="url(#clipPath2)" stroke="none"/>
      <path fill="none" d="M363.0435 -16.5 L301.4006 -16.5 L301.4006 157.0099" clip-path="url(#clipPath2)"/>
      <path d="M301.4006 165.0099 L306.4006 153.0099 L301.4006 156.0099 L296.4006 153.0099 Z" clip-path="url(#clipPath2)" stroke="none"/>
      <text x="327.1708" xml:space="preserve" y="-23.3301" clip-path="url(#clipPath2)" font-family="sans-serif" stroke="none">Yes</text>
      <path fill="none" d="M600.2814 -15.1024 L655.7713 -15.1024 L655.7713 17.0265" clip-path="url(#clipPath2)"/>
      <path d="M655.7713 25.0265 L660.7713 13.0265 L655.7713 16.0265 L650.7713 13.0265 Z" clip-path="url(#clipPath2)" stroke="none"/>
      <text x="612.3856" xml:space="preserve" y="-21.9325" clip-path="url(#clipPath2)" font-family="sans-serif" stroke="none">No</text>
    </g>
  </g>
</svg>
